<svg xmlns="http://www.w3.org/2000/svg" xmlns:xlink="http://www.w3.org/1999/xlink" width="24" height="24" viewBox="0 0 24 24">
  <defs>
    <clipPath id="clip-path">
      <rect id="Rectangle_334" data-name="Rectangle 334" width="24" height="24" transform="translate(282 1765)" fill="#253d8f" stroke="#707070" stroke-width="1"/>
    </clipPath>
  </defs>
  <g id="cate-12" transform="translate(-282 -1765)" clip-path="url(#clip-path)">
    <g id="_28_Air_Purifier" data-name="28 Air Purifier" transform="translate(282 1765.031)">
      <g id="Outline">
        <path id="Path_464" data-name="Path 464" d="M17.205,18.351h-.748v3.343h-.748V17.32h-.748v4.373h-.748V15.716h-.748v5.978h-.748V2.244h.748V6.405h.748V2.244h.748V6.255h.748V2.244h.748V5.761h.748V.748h1.122V0H6.358V.748H7.481V23.19H6.358v.748H18.327V23.19H17.205ZM8.229.748h8.229V1.5H8.229Zm3.74,1.5v19.45h-.748V2.244Zm-1.5,0v19.45H9.725V2.244Zm-2.244,0h.748v19.45H8.229ZM16.457,23.19H8.229v-.748h8.229Z" fill="#253d8f"/>
        <path id="Path_465" data-name="Path 465" d="M22.121,4.3l.641.385L24,2.618,22.762.556,22.121.94l.782,1.3H20.946v.748H22.9Z" fill="#253d8f"/>
        <path id="Path_466" data-name="Path 466" d="M19.45,2.244H20.2v.748H19.45Z" fill="#253d8f"/>
        <path id="Path_467" data-name="Path 467" d="M17.953,2.244H18.7v.748h-.748Z" fill="#253d8f"/>
        <path id="Path_468" data-name="Path 468" d="M4.168,4.3l.641.385L6.047,2.618,4.809.556,4.168.94l.782,1.3H2.992v.748H4.95Z" fill="#253d8f"/>
        <path id="Path_469" data-name="Path 469" d="M1.5,2.244h.748v.748H1.5Z" fill="#253d8f"/>
        <path id="Path_470" data-name="Path 470" d="M0,2.244H.748v.748H0Z" fill="#253d8f"/>
        <path id="Path_471" data-name="Path 471" d="M4.168,19.642l.782,1.3H2.992v.748H4.95L4.168,23l.641.385L6.047,21.32,4.809,19.257Z" fill="#253d8f"/>
        <path id="Path_472" data-name="Path 472" d="M1.5,20.946h.748v.748H1.5Z" fill="#253d8f"/>
        <path id="Path_473" data-name="Path 473" d="M0,20.946H.748v.748H0Z" fill="#253d8f"/>
        <path id="Path_474" data-name="Path 474" d="M22.121,19.642l.782,1.3H20.946v.748H22.9L22.121,23l.641.385L24,21.32l-1.238-2.063Z" fill="#253d8f"/>
        <path id="Path_475" data-name="Path 475" d="M19.45,20.946H20.2v.748H19.45Z" fill="#253d8f"/>
        <path id="Path_476" data-name="Path 476" d="M17.953,20.946H18.7v.748h-.748Z" fill="#253d8f"/>
        <path id="Path_477" data-name="Path 477" d="M23.938,11.19V7.527C23.829,7.5,21.9,7.77,18.658,5.9a7.924,7.924,0,0,1-5.193,1.626V11.19a7.444,7.444,0,0,0,5.1,6.739l.134.051s5.236-1.759,5.236-6.79ZM15.21,14.407a5.817,5.817,0,0,1-1-3.217V8.268a8.307,8.307,0,0,0,4.523-1.463A13.225,13.225,0,0,0,22.626,8.2l-2.177,1.822a2.609,2.609,0,0,0-1.374-.643V8.229h-.748V9.378a2.6,2.6,0,0,0-1.084.417l-.989-.989-.529.529.963.963a2.608,2.608,0,0,0-.576,1.286H14.961v.748h1.148a2.6,2.6,0,0,0,.367,1.015Zm5.138-3.325a1.869,1.869,0,0,1-2.808,2.351Zm-3.29,1.778a1.869,1.869,0,0,1,2.81-2.352ZM18.7,17.177a7.721,7.721,0,0,1-3.044-2.17l1.3-1.088a2.609,2.609,0,0,0,1.37.641v1.149h.748V14.56a2.6,2.6,0,0,0,1.139-.456l.654.654.529-.529-.641-.641a2.605,2.605,0,0,0,.536-1.246h.962v-.748h-.962a2.6,2.6,0,0,0-.364-1L23.19,8.7V11.19A6.676,6.676,0,0,1,18.7,17.177Z" fill="#253d8f"/>
        <path id="Path_478" data-name="Path 478" d="M.564,9.6a1.425,1.425,0,0,0,1.12.591A1.425,1.425,0,0,0,2.8,9.6c.209-.232.32-.344.564-.344s.355.112.564.344a1.425,1.425,0,0,0,1.12.591A1.425,1.425,0,0,0,6.169,9.6c.209-.232.32-.344.564-.344V8.509a1.425,1.425,0,0,0-1.12.591c-.209.232-.32.344-.564.344s-.355-.112-.564-.344a1.425,1.425,0,0,0-1.12-.591,1.425,1.425,0,0,0-1.12.591c-.209.232-.32.344-.564.344S1.329,9.333,1.12,9.1A1.425,1.425,0,0,0,0,8.509v.748C.243,9.257.355,9.369.564,9.6Z" fill="#253d8f"/>
        <path id="Path_479" data-name="Path 479" d="M.564,11.939a1.425,1.425,0,0,0,1.12.591,1.425,1.425,0,0,0,1.12-.591c.209-.232.32-.344.564-.344s.355.112.564.344a1.425,1.425,0,0,0,1.12.591,1.425,1.425,0,0,0,1.12-.591c.209-.232.32-.344.564-.344v-.748a1.425,1.425,0,0,0-1.12.591c-.209.232-.32.344-.564.344s-.355-.112-.564-.344a1.425,1.425,0,0,0-1.12-.591,1.425,1.425,0,0,0-1.12.591c-.209.232-.32.344-.564.344s-.355-.112-.564-.344A1.425,1.425,0,0,0,0,10.847v.748C.243,11.595.355,11.707.564,11.939Z" fill="#253d8f"/>
        <path id="Path_480" data-name="Path 480" d="M6.733,13.091a1.425,1.425,0,0,0-1.12.591c-.209.232-.32.344-.564.344s-.355-.112-.564-.344a1.425,1.425,0,0,0-1.12-.591,1.425,1.425,0,0,0-1.12.591c-.209.232-.32.344-.564.344s-.355-.112-.564-.344A1.425,1.425,0,0,0,0,13.091v.748c.243,0,.355.112.564.344a1.425,1.425,0,0,0,1.12.591,1.425,1.425,0,0,0,1.12-.591c.209-.232.32-.344.564-.344s.355.112.564.344a1.425,1.425,0,0,0,1.12.591,1.425,1.425,0,0,0,1.12-.591c.209-.232.32-.344.564-.344Z" fill="#253d8f"/>
      </g>
    </g>
  </g>
</svg>
