<svg xmlns="http://www.w3.org/2000/svg" xmlns:xlink="http://www.w3.org/1999/xlink" width="24" height="24" viewBox="0 0 24 24">
  <defs>
    <clipPath id="clip-path">
      <rect id="Rectangle_330" data-name="Rectangle 330" width="24" height="24" transform="translate(282 1513)" fill="#253d8f" stroke="#707070" stroke-width="1"/>
    </clipPath>
  </defs>
  <g id="cate-8" transform="translate(-282 -1513)" clip-path="url(#clip-path)">
    <g id="air-conditioning_1_" data-name="air-conditioning (1)" transform="translate(282 1513)">
      <g id="Group_313" data-name="Group 313">
        <path id="Path_460" data-name="Path 460" d="M4.031,9.908a.352.352,0,0,0,.352-.352V1.319A.616.616,0,0,1,5,.7H16.511a.352.352,0,1,0,0-.7H5A1.32,1.32,0,0,0,3.68,1.319V9.557A.352.352,0,0,0,4.031,9.908Z" fill="#253d8f"/>
        <path id="Path_461" data-name="Path 461" d="M23.009,16.908a.462.462,0,0,0-.5-.053l-1.323.681c-.126-.19-.316-.487-.544-.881a.352.352,0,1,0-.609.352c.441.762.743,1.174.756,1.191a.351.351,0,0,0,.444.1l1.108-.57-.9,3.227-3.149-1.143,1.108-.57a.352.352,0,0,0,.121-.523,17.5,17.5,0,0,1-1.789-3.37,29.142,29.142,0,0,1-2.108-9.26h1.018a26.6,26.6,0,0,0,2.676,9.575.352.352,0,0,0,.63-.312c-.26-.526-.537-1.134-.811-1.816a1.32,1.32,0,0,0,1.188-1.312V1.319A1.32,1.32,0,0,0,19,0h-.995a.352.352,0,0,0,0,.7H19a.616.616,0,0,1,.615.615v10.91a.616.616,0,0,1-.615.615h-.137q-.139-.376-.273-.777a.615.615,0,0,0,.322-.54V2.021a.615.615,0,0,0-.615-.615H5.7a.615.615,0,0,0-.615.615v9.505a.615.615,0,0,0,.321.54q-.135.4-.272.778H5a.616.616,0,0,1-.615-.615V11.066a.352.352,0,0,0-.7,0v1.162A1.32,1.32,0,0,0,4.867,13.54c-.135.338-.269.652-.4.94a21.616,21.616,0,0,1-1.652,3.056l-1.323-.681a.462.462,0,0,0-.657.535L1.956,21.4a.463.463,0,0,0,.6.31l3.912-1.42h0a.462.462,0,0,0,.054-.845L5.281,18.8A20.043,20.043,0,0,0,6.91,15.652c.249-.594.516-1.3.776-2.1h2.931v6.514H9.085a.424.424,0,0,0-.311.713L11.6,23.827a.542.542,0,0,0,.794,0l2.829-3.053a.424.424,0,0,0-.311-.713H13.383V13.547h2.931c.26.806.527,1.511.776,2.1A20.047,20.047,0,0,0,18.719,18.8l-1.244.64a.462.462,0,0,0,.054.845l3.912,1.42a.462.462,0,0,0,.6-.31l1.119-4.008a.462.462,0,0,0-.153-.483ZM15.388,9.879H13.383V7.77h1.685c.087.739.2,1.442.32,2.109Zm-2.005.7h2.145q.093.44.194.855H13.383Zm1.611-3.516H13.383V6.093h1.533q.032.5.078.974ZM5.789,5.39V3.28H18.211V5.39ZM8.932,7.77h1.685V9.879H8.612c.125-.667.233-1.37.32-2.109Zm-.46,2.813h2.145v.855H8.279Q8.379,11.021,8.472,10.582Zm2.145-3.516H9.007q.045-.478.078-.974h1.533ZM6.033,9.879H5.789V7.77h.662C6.336,8.509,6.193,9.214,6.033,9.879Zm.518-2.813H5.789V6.093h.867Q6.612,6.588,6.551,7.066Zm11,.7h.663V9.879h-.246C17.8,9.21,17.663,8.506,17.548,7.77Zm.663-1.677v.974h-.762q-.061-.479-.105-.974Zm-.066,4.489h.066v.242Q18.177,10.7,18.145,10.582Zm.066-8.473v.468H5.789V2.109ZM5.789,10.582h.064c-.021.079-.043.157-.064.235Zm.484,4.771a17.5,17.5,0,0,1-1.789,3.37.352.352,0,0,0,.121.523l1.108.57L2.563,20.959l-.9-3.227,1.108.57a.352.352,0,0,0,.444-.1A25.745,25.745,0,0,0,7.362,6.093H8.38a29.142,29.142,0,0,1-2.108,9.26ZM7.9,12.844q.1-.341.2-.7h2.517v.7Zm6.374,7.92L12,23.221,9.723,20.764h1.246a.352.352,0,0,0,.352-.352V6.093H12.68V20.412a.352.352,0,0,0,.352.352Zm-.894-7.92v-.7H15.9q.1.362.2.7Z" fill="#253d8f"/>
      </g>
    </g>
  </g>
</svg>
