<svg xmlns="http://www.w3.org/2000/svg" xmlns:xlink="http://www.w3.org/1999/xlink" width="24" height="24" viewBox="0 0 24 24">
  <defs>
    <clipPath id="clip-path">
      <rect id="Rectangle_327" data-name="Rectangle 327" width="24" height="24" transform="translate(282 1324)" fill="#253d8f" stroke="#707070" stroke-width="1"/>
    </clipPath>
  </defs>
  <g id="cate-5" transform="translate(-282 -1324)" clip-path="url(#clip-path)">
    <g id="atom" transform="translate(281.076 1323.038)">
      <path id="Path_428" data-name="Path 428" d="M12.962,10.177a2.785,2.785,0,1,0,2.785,2.785A2.785,2.785,0,0,0,12.962,10.177Zm0,4.861a2.076,2.076,0,1,1,2.076-2.076,2.076,2.076,0,0,1-2.076,2.076Z" fill="#253d8f"/>
      <path id="Path_429" data-name="Path 429" d="M14.177,12.608a.354.354,0,0,0-.354.354.866.866,0,0,1-.429.745.354.354,0,0,0,.357.612,1.577,1.577,0,0,0,.781-1.357.354.354,0,0,0-.354-.354Z" fill="#253d8f"/>
      <path id="Path_430" data-name="Path 430" d="M22.123,12.134a1.569,1.569,0,0,0,1.506-2.627c-.026-.026-.053-.049-.081-.072a3.139,3.139,0,0,0-.193-2.472C22.5,5.488,20.27,5,17.2,5.615,16.2,2.655,14.662.962,12.962.962S9.727,2.655,8.718,5.615C5.653,5,3.42,5.488,2.569,6.962A3.141,3.141,0,0,0,2.363,9.38a1.57,1.57,0,0,0,1.426,2.737c.21.28.441.563.689.846-2.06,2.35-2.758,4.526-1.908,6C3.18,20.021,4.5,20.57,6.333,20.57a12.387,12.387,0,0,0,2.385-.262c1.008,2.96,2.544,4.654,4.244,4.654a3.157,3.157,0,0,0,2.206-1.038,1.569,1.569,0,0,0,1.739-2.546c-.026-.026-.053-.049-.08-.073.133-.314.26-.648.38-1a12.359,12.359,0,0,0,2.384.262c1.831,0,3.153-.549,3.764-1.608.851-1.473.151-3.649-1.908-6C21.686,12.691,21.912,12.413,22.123,12.134Zm1-.909a.862.862,0,0,1-1.217,0h0a.86.86,0,1,1,1.217,0Zm-.386-3.909A2.383,2.383,0,0,1,22.9,9.1a1.569,1.569,0,0,0-1.5,2.628c.026.026.053.049.08.073q-.247.321-.521.638a21.417,21.417,0,0,0-2.828-2.463,21.679,21.679,0,0,0-.717-3.68c2.671-.516,4.646-.144,5.319,1.022ZM16.727,19.48a20.3,20.3,0,0,1-2.892-.94c.6-.292,1.207-.61,1.8-.951s1.172-.707,1.722-1.083a20.293,20.293,0,0,1-.627,2.974Zm-7.53,0a20.29,20.29,0,0,1-.628-2.974c.551.376,1.127.739,1.723,1.083s1.192.659,1.8.951a20.307,20.307,0,0,1-2.892.94Zm0-13.036a20.3,20.3,0,0,1,2.892.94c-.6.292-1.207.61-1.8.952S9.12,9.043,8.569,9.419A20.284,20.284,0,0,1,9.2,6.444Zm-1.5,8.55a20.009,20.009,0,0,1-2.261-2.032A20.032,20.032,0,0,1,7.7,10.93c-.05.668-.077,1.349-.077,2.032S7.646,14.325,7.7,14.994Zm2.95,1.981c-.767-.443-1.5-.918-2.189-1.413-.085-.849-.129-1.722-.129-2.6s.045-1.751.129-2.6c.687-.494,1.421-.97,2.189-1.413s1.538-.838,2.316-1.19c.778.353,1.557.752,2.316,1.19s1.5.918,2.189,1.413c.085.849.129,1.722.129,2.6s-.045,1.751-.129,2.6c-.687.494-1.421.97-2.189,1.413s-1.538.838-2.316,1.19c-.779-.353-1.557-.752-2.317-1.19ZM16.727,6.443a20.289,20.289,0,0,1,.628,2.974c-.551-.376-1.127-.739-1.722-1.083s-1.193-.658-1.8-.95a20.307,20.307,0,0,1,2.892-.94Zm1.5,4.486a20.009,20.009,0,0,1,2.261,2.032,20.032,20.032,0,0,1-2.261,2.032c.05-.668.077-1.349.077-2.032S18.278,11.6,18.228,10.93ZM12.962,1.671c1.344,0,2.656,1.525,3.547,4.1a21.738,21.738,0,0,0-3.548,1.215A21.721,21.721,0,0,0,9.415,5.767C10.306,3.2,11.618,1.671,12.962,1.671ZM2.72,11.225h0a.862.862,0,1,1,.609.252.862.862,0,0,1-.609-.252ZM4.438,9.506a1.57,1.57,0,0,0-1.422-.427,2.353,2.353,0,0,1,.167-1.762C3.856,6.15,5.831,5.778,8.5,6.295a21.693,21.693,0,0,0-.717,3.68,21.4,21.4,0,0,0-2.828,2.461q-.3-.341-.553-.679l.034-.031a1.571,1.571,0,0,0,0-2.22Zm-1.256,9.1c-.671-1.165-.006-3.062,1.776-5.119A21.41,21.41,0,0,0,7.785,15.95,21.679,21.679,0,0,0,8.5,19.63c-2.671.516-4.646.144-5.319-1.023ZM16.406,23.1a.862.862,0,1,1,.252-.609.862.862,0,0,1-.252.609ZM15.8,20.919A1.569,1.569,0,0,0,14.6,23.5a2.381,2.381,0,0,1-1.634.756c-1.344,0-2.656-1.525-3.547-4.1a21.738,21.738,0,0,0,3.548-1.215,21.724,21.724,0,0,0,3.548,1.215c-.1.285-.2.557-.311.815a1.574,1.574,0,0,0-.4-.053Zm6.944-2.311c-.673,1.167-2.648,1.539-5.319,1.023a21.693,21.693,0,0,0,.717-3.68,21.4,21.4,0,0,0,2.826-2.462c1.782,2.057,2.447,3.954,1.775,5.119Z" fill="#253d8f"/>
    </g>
  </g>
</svg>
