<svg xmlns="http://www.w3.org/2000/svg" xmlns:xlink="http://www.w3.org/1999/xlink" width="24" height="24" viewBox="0 0 24 24">
  <defs>
    <clipPath id="clip-path">
      <rect id="Rectangle_331" data-name="Rectangle 331" width="24" height="24" transform="translate(282 1574)" fill="#253d8f" stroke="#707070" stroke-width="1"/>
    </clipPath>
  </defs>
  <g id="cate-9" transform="translate(-282 -1574)" clip-path="url(#clip-path)">
    <g id="Page-1" transform="translate(283.166 1574)">
      <g id="_003---Safe" data-name="003---Safe">
        <path id="Shape" d="M1.667,21.56v.84a1.6,1.6,0,0,0,1.6,1.6H7.2a1.6,1.6,0,0,0,1.6-1.6v-.8h4v.8A1.6,1.6,0,0,0,14.4,24h3.933a1.6,1.6,0,0,0,1.6-1.6v-.834A2,2,0,0,0,21.6,19.6V2a2,2,0,0,0-2-2H2.068a2,2,0,0,0-2,2V3.6a.4.4,0,0,0,.8,0V2A1.2,1.2,0,0,1,2.068.8H19.6A1.2,1.2,0,0,1,20.8,2V19.6a1.2,1.2,0,0,1-1.2,1.2H2.068a1.2,1.2,0,0,1-1.2-1.2V5.6a.4.4,0,0,0-.8,0v14a2,2,0,0,0,1.6,1.96Zm17.466.04v.8a.8.8,0,0,1-.8.8H14.4a.8.8,0,0,1-.8-.8v-.8ZM8,21.6v.8a.8.8,0,0,1-.8.8H3.267a.8.8,0,0,1-.8-.8v-.8Z" fill="#253d8f"/>
        <path id="Shape-2" data-name="Shape" d="M3.2,13.6a.4.4,0,0,0-.4.4v3.6A1.2,1.2,0,0,0,4,18.8H17.6a1.2,1.2,0,0,0,1.2-1.2v-.4A1.2,1.2,0,0,0,20,16V13.6a1.2,1.2,0,0,0-1.2-1.2V9.2A1.2,1.2,0,0,0,20,8V5.6a1.2,1.2,0,0,0-1.2-1.2V4a1.2,1.2,0,0,0-1.2-1.2H4A1.2,1.2,0,0,0,2.8,4v8a.4.4,0,1,0,.8,0V4A.4.4,0,0,1,4,3.6H17.6A.4.4,0,0,1,18,4v.4a1.2,1.2,0,0,0-1.2,1.2V8A1.2,1.2,0,0,0,18,9.2v3.2a1.2,1.2,0,0,0-1.2,1.2V16A1.2,1.2,0,0,0,18,17.2v.4a.4.4,0,0,1-.4.4H4a.4.4,0,0,1-.4-.4V14A.4.4,0,0,0,3.2,13.6ZM17.6,8V5.6a.4.4,0,0,1,.4-.4h.8a.4.4,0,0,1,.4.4V8a.4.4,0,0,1-.4.4H18A.4.4,0,0,1,17.6,8Zm0,8V13.6a.4.4,0,0,1,.4-.4h.8a.4.4,0,0,1,.4.4V16a.4.4,0,0,1-.4.4H18A.4.4,0,0,1,17.6,16Z" fill="#253d8f"/>
        <path id="Shape-3" data-name="Shape" d="M6.366,12.637a4.8,4.8,0,1,0,0-3.674,4.8,4.8,0,0,0,0,3.674Zm2.542-5.36.146.351a.4.4,0,1,0,.739-.306L9.646,6.97a3.964,3.964,0,0,1,2.307,0l-.145.351a.4.4,0,1,0,.739.306l.146-.352a3.965,3.965,0,0,1,1.631,1.632l-.351.146a.4.4,0,1,0,.306.739l.351-.145a3.964,3.964,0,0,1,0,2.307l-.351-.145a.4.4,0,1,0-.306.739l.352.146a3.965,3.965,0,0,1-1.632,1.631l-.146-.351a.4.4,0,1,0-.739.306l.145.351a3.964,3.964,0,0,1-2.307,0l.145-.351a.4.4,0,1,0-.739-.306l-.146.352a3.965,3.965,0,0,1-1.631-1.632l.351-.146a.4.4,0,1,0-.306-.739l-.351.145a3.964,3.964,0,0,1,0-2.307l.351.145a.4.4,0,1,0,.306-.739l-.352-.146A3.965,3.965,0,0,1,8.907,7.276Z" fill="#253d8f"/>
        <path id="Shape-4" data-name="Shape" d="M10.8,13.2a2.4,2.4,0,1,0-2.22-1.48A2.4,2.4,0,0,0,10.8,13.2Zm-.616-3.88a1.6,1.6,0,1,1-.869.866,1.6,1.6,0,0,1,.869-.866Z" fill="#253d8f"/>
        <path id="Shape-5" data-name="Shape" d="M6.8,4.4h-2a.4.4,0,0,0-.4.4v2a.4.4,0,0,0,.8,0V5.2H6.8a.4.4,0,0,0,0-.8Z" fill="#253d8f"/>
      </g>
    </g>
  </g>
</svg>
