<svg xmlns="http://www.w3.org/2000/svg" xmlns:xlink="http://www.w3.org/1999/xlink" width="24" height="24" viewBox="0 0 24 24">
  <defs>
    <clipPath id="clip-path">
      <rect id="Rectangle_335" data-name="Rectangle 335" width="24" height="24" transform="translate(282 1824)" fill="#253d8f" stroke="#707070" stroke-width="1"/>
    </clipPath>
  </defs>
  <g id="cate-13" transform="translate(-282 -1824)" clip-path="url(#clip-path)">
    <g id="locker" transform="translate(281.613 1823.613)">
      <path id="Path_481" data-name="Path 481" d="M3.484,3.871H2.323a.387.387,0,0,0-.387.387V8.9a.387.387,0,0,0,.387.387H3.484A.387.387,0,0,0,3.871,8.9V4.258A.387.387,0,0,0,3.484,3.871ZM3.1,8.516H2.71V4.645H3.1Z" fill="#253d8f"/>
      <path id="Path_482" data-name="Path 482" d="M10.79,1.935H8.081a.387.387,0,0,0,0,.774h2.71a.387.387,0,0,0,0-.774Z" fill="#253d8f"/>
      <path id="Path_483" data-name="Path 483" d="M10.79,3.1H8.081a.387.387,0,0,0,0,.774h2.71a.387.387,0,0,0,0-.774Z" fill="#253d8f"/>
      <path id="Path_484" data-name="Path 484" d="M10.79,4.258H8.081a.387.387,0,0,0,0,.774h2.71a.387.387,0,0,0,0-.774Z" fill="#253d8f"/>
      <path id="Path_485" data-name="Path 485" d="M6.919,1.935H6.532a.387.387,0,1,0,0,.774h.387a.387.387,0,1,0,0-.774Z" fill="#253d8f"/>
      <path id="Path_486" data-name="Path 486" d="M24,.387H.774A.387.387,0,0,0,.387.774V24a.387.387,0,0,0,.387.387H24A.387.387,0,0,0,24.387,24V.774A.387.387,0,0,0,24,.387ZM12,23.613H1.161V12.774H12ZM12,12H1.161V1.161H12ZM23.613,23.613H12.774V12.774H23.613Zm0-11.613H12.774V1.161H23.613Z" fill="#253d8f"/>
      <path id="Path_487" data-name="Path 487" d="M13.935,9.29H15.1a.387.387,0,0,0,.387-.387V4.258a.387.387,0,0,0-.387-.387H13.935a.387.387,0,0,0-.387.387V8.9A.387.387,0,0,0,13.935,9.29Zm.387-4.645h.387V8.516h-.387Z" fill="#253d8f"/>
      <path id="Path_488" data-name="Path 488" d="M19.694,2.71H22.4a.387.387,0,0,0,0-.774h-2.71a.387.387,0,0,0,0,.774Z" fill="#253d8f"/>
      <path id="Path_489" data-name="Path 489" d="M19.694,3.871H22.4a.387.387,0,0,0,0-.774h-2.71a.387.387,0,0,0,0,.774Z" fill="#253d8f"/>
      <path id="Path_490" data-name="Path 490" d="M19.694,5.032H22.4a.387.387,0,0,0,0-.774h-2.71a.387.387,0,0,0,0,.774Z" fill="#253d8f"/>
      <path id="Path_491" data-name="Path 491" d="M18.145,2.71h.387a.387.387,0,0,0,0-.774h-.387a.387.387,0,0,0,0,.774Z" fill="#253d8f"/>
      <path id="Path_492" data-name="Path 492" d="M3.484,15.484H2.323a.387.387,0,0,0-.387.387v4.645a.387.387,0,0,0,.387.387H3.484a.387.387,0,0,0,.387-.387V15.871A.387.387,0,0,0,3.484,15.484ZM3.1,20.129H2.71V16.258H3.1Z" fill="#253d8f"/>
      <path id="Path_493" data-name="Path 493" d="M10.79,13.548H8.081a.387.387,0,0,0,0,.774h2.71a.387.387,0,0,0,0-.774Z" fill="#253d8f"/>
      <path id="Path_494" data-name="Path 494" d="M10.79,14.71H8.081a.387.387,0,0,0,0,.774h2.71a.387.387,0,0,0,0-.774Z" fill="#253d8f"/>
      <path id="Path_495" data-name="Path 495" d="M10.79,15.871H8.081a.387.387,0,0,0,0,.774h2.71a.387.387,0,0,0,0-.774Z" fill="#253d8f"/>
      <path id="Path_496" data-name="Path 496" d="M6.919,13.548H6.532a.387.387,0,1,0,0,.774h.387a.387.387,0,1,0,0-.774Z" fill="#253d8f"/>
      <path id="Path_497" data-name="Path 497" d="M13.935,20.9H15.1a.387.387,0,0,0,.387-.387V15.871a.387.387,0,0,0-.387-.387H13.935a.387.387,0,0,0-.387.387v4.645A.387.387,0,0,0,13.935,20.9Zm.387-4.645h.387v3.871h-.387Z" fill="#253d8f"/>
      <path id="Path_498" data-name="Path 498" d="M19.694,14.323H22.4a.387.387,0,0,0,0-.774h-2.71a.387.387,0,0,0,0,.774Z" fill="#253d8f"/>
      <path id="Path_499" data-name="Path 499" d="M19.694,15.484H22.4a.387.387,0,0,0,0-.774h-2.71a.387.387,0,0,0,0,.774Z" fill="#253d8f"/>
      <path id="Path_500" data-name="Path 500" d="M19.694,16.645H22.4a.387.387,0,0,0,0-.774h-2.71a.387.387,0,0,0,0,.774Z" fill="#253d8f"/>
      <path id="Path_501" data-name="Path 501" d="M18.145,14.323h.387a.387.387,0,0,0,0-.774h-.387a.387.387,0,0,0,0,.774Z" fill="#253d8f"/>
    </g>
  </g>
</svg>
