<svg xmlns="http://www.w3.org/2000/svg" xmlns:xlink="http://www.w3.org/1999/xlink" width="24" height="24" viewBox="0 0 24 24">
  <defs>
    <clipPath id="clip-path">
      <rect id="Rectangle_333" data-name="Rectangle 333" width="24" height="24" transform="translate(282 1702)" fill="#253d8f" stroke="#707070" stroke-width="1"/>
    </clipPath>
  </defs>
  <g id="cate-11" transform="translate(-282 -1702)" clip-path="url(#clip-path)">
    <g id="Layer_2" data-name="Layer 2" transform="translate(281.336 1700.672)">
      <path id="Path_462" data-name="Path 462" d="M15.351,10.171c-.965-1-2.517.533-1.517,1.514A1.072,1.072,0,0,0,15.351,10.171Zm-.76,1.162a.408.408,0,0,1,0-.8.408.408,0,0,1,0,.8Z" fill="#253d8f"/>
      <path id="Path_463" data-name="Path 463" d="M3.647,23.08H2.666a.333.333,0,0,0-.333.333v1.581a.333.333,0,0,0,.333.333h20a.333.333,0,0,0,.333-.333V23.413a.333.333,0,0,0-.333-.333h-.973a19.319,19.319,0,0,0-4.943-12.3,2.133,2.133,0,0,0-.411-1.128l2.386-2.4c.379-.355-.424-.824-.592-1.066l1.765-1.765.368.373c.3.309.781-.168.472-.469-.021-.029-.589-.573-.6-.608-.432-.435-1.9-1.893-2.306-2.3-.3-.3-.784.176-.472.477l.368.368L15.959,4.036c-.24-.171-.709-.97-1.066-.592L7.068,11.272c-.3.285.136.6.323.8-.155.267-1.317.962-.882,1.354l2.234,2.237a.344.344,0,0,0,.237.1.333.333,0,0,0,.235-.1l.882-.882c.192.187.509.621.8.323l2.426-2.426a2.133,2.133,0,0,0,1.016.387c.24.872,1.04,4.175-.187,5.852a2.616,2.616,0,0,1-2.279.992H9.91v-.8h1.962a.333.333,0,0,0,.333-.333V17.2a.333.333,0,0,0-.333-.333h-8.7a.331.331,0,0,0-.333.333v1.584a.331.331,0,0,0,.333.333H5.138v.946c-1.178.64-1.434,2.3-1.49,3.013Zm18.681,1.581H3v-.914H22.328Zm-4.7-1.581c-.605-4.3-.464-7.441.392-8.417a.861.861,0,0,1,.477-.3,18.287,18.287,0,0,1,2.527,8.729ZM14.591,12.416a1.5,1.5,0,0,1,0-2.994,1.5,1.5,0,0,1,0,3Zm3.6-9.675L19.422,3.97,17.657,5.735,16.428,4.506ZM8.979,14.951,7.214,13.184l.645-.653L9.625,14.3Zm1.685-.555-2.89-2.89L15.13,4.151c.731.739,2.133,2.152,2.885,2.882L15.882,9.179A2.172,2.172,0,0,0,12.858,12.2Zm4.026,4.922c1.349-1.845.635-5.138.333-6.271a2.173,2.173,0,0,0,1.6-1.392,18.839,18.839,0,0,1,1.522,2.106,1.576,1.576,0,0,0-.629.453c-1.333,1.538-.946,6.089-.56,8.865H4.316c.059-.661.3-2.109,1.29-2.5h6.265A3.278,3.278,0,0,0,14.69,19.318ZM3.509,17.537h8.03v.917H3.509Zm5.735,1.584v.8H5.8v-.8Z" fill="#253d8f"/>
    </g>
  </g>
</svg>
