<svg xmlns="http://www.w3.org/2000/svg" xmlns:xlink="http://www.w3.org/1999/xlink" width="24" height="24" viewBox="0 0 24 24">
  <defs>
    <clipPath id="clip-path">
      <rect id="Rectangle_326" data-name="Rectangle 326" width="24" height="24" transform="translate(282 1261)" fill="#253d8f" stroke="#707070" stroke-width="1"/>
    </clipPath>
  </defs>
  <g id="cate-4" transform="translate(-282 -1261)" clip-path="url(#clip-path)">
    <g id="air-conditioning" transform="translate(282 1261)">
      <g id="Page-1_12_">
        <g id="_x30_13---AC-Unit">
          <path id="Shape_84_" d="M21.6,3.2H2.4A2.4,2.4,0,0,0,0,5.6V16.8a2.4,2.4,0,0,0,2.4,2.4h.4v.4A1.2,1.2,0,0,0,4,20.8H5.2a1.2,1.2,0,0,0,1.2-1.2v-.4H17.6v.4a1.2,1.2,0,0,0,1.2,1.2H20a1.2,1.2,0,0,0,1.2-1.2v-.4h.4A2.4,2.4,0,0,0,24,16.8V5.6a2.4,2.4,0,0,0-2.4-2.4ZM5.6,19.6a.4.4,0,0,1-.4.4H4a.4.4,0,0,1-.4-.4v-.4h2v.4Zm14.8,0a.4.4,0,0,1-.4.4H18.8a.4.4,0,0,1-.4-.4v-.4h2Zm2.8-2.8a1.6,1.6,0,0,1-1.6,1.6H2.4A1.6,1.6,0,0,1,.8,16.8V5.6A1.6,1.6,0,0,1,2.4,4H21.6a1.6,1.6,0,0,1,1.6,1.6Z" fill="#253d8f"/>
          <path id="Shape_83_" d="M8,4.8a6.4,6.4,0,1,0,6.4,6.4A6.4,6.4,0,0,0,8,4.8Zm0,12a5.6,5.6,0,1,1,5.6-5.6A5.6,5.6,0,0,1,8,16.8Z" fill="#253d8f"/>
          <path id="Shape_82_" d="M10.4,9.753a1.9,1.9,0,0,1-.534.383,1.5,1.5,0,0,1-.16.068,3.236,3.236,0,0,0,.623-1.6,1.755,1.755,0,0,0-.488-1.438,2.527,2.527,0,0,0-.88-.577,2.189,2.189,0,0,0-1.878.04,1.505,1.505,0,0,0-.806.855A1.193,1.193,0,0,0,6.548,8.8a1.935,1.935,0,0,1,.383.534A1.5,1.5,0,0,1,7,9.492a3.23,3.23,0,0,0-1.6-.619,1.762,1.762,0,0,0-1.433.487,2.53,2.53,0,0,0-.576.88,2.186,2.186,0,0,0,.04,1.88,1.511,1.511,0,0,0,.853.8,1.442,1.442,0,0,0,.48.088,1.176,1.176,0,0,0,.84-.36,1.9,1.9,0,0,1,.535-.383,1.375,1.375,0,0,1,.155-.066,3.24,3.24,0,0,0-.619,1.6,1.76,1.76,0,0,0,.485,1.437,2.531,2.531,0,0,0,.88.577,2.36,2.36,0,0,0,.911.19,2.167,2.167,0,0,0,.969-.232,1.509,1.509,0,0,0,.8-.855A1.194,1.194,0,0,0,9.448,13.6a1.934,1.934,0,0,1-.382-.536A1.48,1.48,0,0,1,9,12.909a3.24,3.24,0,0,0,1.6.619,1.964,1.964,0,0,0,.2.011,1.755,1.755,0,0,0,1.233-.5,2.536,2.536,0,0,0,.578-.88,2.189,2.189,0,0,0-.043-1.88,1.511,1.511,0,0,0-.852-.8,1.191,1.191,0,0,0-1.318.273ZM7,11.2a1,1,0,1,1,1,1,1,1,0,0,1-1-1Zm.031-3.445a.728.728,0,0,1,.4-.4,1.4,1.4,0,0,1,1.219-.021,1.732,1.732,0,0,1,.608.392.952.952,0,0,1,.27.8,2.422,2.422,0,0,1-.48,1.221A1.783,1.783,0,0,0,8,9.4a1.818,1.818,0,0,0-.193.02,1.871,1.871,0,0,0-.154-.433,2.769,2.769,0,0,0-.538-.752.4.4,0,0,1-.088-.483ZM5.787,11.549a2.711,2.711,0,0,0-.75.537.4.4,0,0,1-.484.083.73.73,0,0,1-.4-.4,1.4,1.4,0,0,1-.02-1.22,1.736,1.736,0,0,1,.391-.609.955.955,0,0,1,.8-.269,2.454,2.454,0,0,1,1.223.48A1.784,1.784,0,0,0,6.2,11.2a1.84,1.84,0,0,0,.02.2,1.828,1.828,0,0,0-.433.155Zm3.18,3.1a.727.727,0,0,1-.4.4,1.4,1.4,0,0,1-1.218.022,1.734,1.734,0,0,1-.609-.391.956.956,0,0,1-.27-.8,2.426,2.426,0,0,1,.48-1.222A1.78,1.78,0,0,0,8,13H8a1.723,1.723,0,0,0,.193-.019,1.836,1.836,0,0,0,.155.432,2.751,2.751,0,0,0,.536.752.4.4,0,0,1,.082.482v0Zm2.9-2.8a1.728,1.728,0,0,1-.39.608.96.96,0,0,1-.8.27,2.458,2.458,0,0,1-1.222-.48,1.577,1.577,0,0,0,.325-1.24,1.826,1.826,0,0,0,.433-.155,2.712,2.712,0,0,0,.752-.538.4.4,0,0,1,.483-.082.734.734,0,0,1,.4.4,1.4,1.4,0,0,1,.023,1.215Z" fill="#253d8f"/>
          <path id="Shape_81_" d="M21.6,5.2H20A.4.4,0,0,0,20,6h1.6a.4.4,0,0,0,0-.8Z" fill="#253d8f"/>
          <circle id="Oval_5_" cx="0.4" cy="0.4" r="0.4" transform="translate(19.6 6.8)" fill="#253d8f"/>
          <circle id="Oval_4_" cx="0.4" cy="0.4" r="0.4" transform="translate(21.2 6.8)" fill="#253d8f"/>
          <path id="Shape_80_" d="M21.6,8.4H16.4a.4.4,0,0,0,0,.8h5.2a.4.4,0,0,0,0-.8Z" fill="#253d8f"/>
          <path id="Shape_79_" d="M21.6,10H16.4a.4.4,0,0,0,0,.8h5.2a.4.4,0,0,0,0-.8Z" fill="#253d8f"/>
          <path id="Shape_78_" d="M21.6,11.6H16.4a.4.4,0,0,0,0,.8h5.2a.4.4,0,0,0,0-.8Z" fill="#253d8f"/>
          <path id="Shape_77_" d="M21.6,13.2H16.4a.4.4,0,1,0,0,.8h5.2a.4.4,0,0,0,0-.8Z" fill="#253d8f"/>
          <path id="Shape_76_" d="M21.6,14.8H16.4a.4.4,0,0,0,0,.8h5.2a.4.4,0,0,0,0-.8Z" fill="#253d8f"/>
          <path id="Shape_75_" d="M21.6,16.4H16.4a.4.4,0,1,0,0,.8h5.2a.4.4,0,1,0,0-.8Z" fill="#253d8f"/>
        </g>
      </g>
    </g>
  </g>
</svg>
