<svg xmlns="http://www.w3.org/2000/svg" xmlns:xlink="http://www.w3.org/1999/xlink" width="24" height="24" viewBox="0 0 24 24">
  <defs>
    <clipPath id="clip-path">
      <rect id="Rectangle_323" data-name="Rectangle 323" width="24" height="24" transform="translate(282 1071)" fill="#253d8f" stroke="#707070" stroke-width="1"/>
    </clipPath>
  </defs>
  <g id="cate-1" transform="translate(-282 -1071)" clip-path="url(#clip-path)">
    <g id="modules" transform="translate(282 1071)">
      <path id="Path_403" data-name="Path 403" d="M23.584,4.382,18.792,1.7A.836.836,0,0,0,18,1.7L13.22,4.38a.812.812,0,0,0-.42.715V9.928L12.4,9.7a.813.813,0,0,0-.8,0l-.4.224V5.1a.81.81,0,0,0-.416-.713L5.992,1.7a.836.836,0,0,0-.792,0L.42,4.38A.812.812,0,0,0,0,5.1V10.9a.811.811,0,0,0,.416.713L5.208,14.3a.826.826,0,0,0,.392.1.852.852,0,0,0,.4-.1l.4-.224v4.831a.814.814,0,0,0,.417.711L11.6,22.3a.814.814,0,0,0,.8,0l4.784-2.68a.814.814,0,0,0,.419-.71V14.073l.408.228a.826.826,0,0,0,.389.1.853.853,0,0,0,.4-.1l4.78-2.678A.812.812,0,0,0,24,10.9V5.1A.81.81,0,0,0,23.584,4.382ZM18.408,2.4l4.366,2.456L18.4,7.305,14.018,4.851Zm-6.4,8,4.375,2.45L12,15.306,7.618,12.852Zm-6.4-8L9.974,4.858,5.6,7.305,1.218,4.851ZM.808,5.54,5.2,8v5.379L.8,10.9ZM6,13.375V8l4.4-2.464v4.84L6.818,12.382a.813.813,0,0,0-.418.712v.061Zm1.207.164L11.6,16v5.378L7.2,18.906ZM12.4,21.37V16l4.4-2.463-.008,5.383Zm4.783-8.987L13.6,10.377l.007-4.84L18,8v5.38l-.4-.223v-.063a.812.812,0,0,0-.417-.711Zm1.617.987V8l4.4-2.464-.008,5.384Z" fill="#253d8f"/>
      <path id="Path_404" data-name="Path 404" d="M9.651,13.088a.4.4,0,0,0,.544.154l2-1.12a.4.4,0,0,0-.39-.7l-2,1.12a.4.4,0,0,0-.154.544Z" fill="#253d8f"/>
      <path id="Path_405" data-name="Path 405" d="M8.4,15.2a.4.4,0,0,0-.4.4v2.611a.4.4,0,1,0,.8,0V15.6A.4.4,0,0,0,8.4,15.2Z" fill="#253d8f"/>
      <path id="Path_406" data-name="Path 406" d="M3.251,5.088a.4.4,0,0,0,.544.154l2-1.12a.4.4,0,0,0-.39-.7l-2,1.12A.4.4,0,0,0,3.251,5.088Z" fill="#253d8f"/>
      <path id="Path_407" data-name="Path 407" d="M2,7.2a.4.4,0,0,0-.4.4v2.611a.4.4,0,1,0,.8,0V7.6A.4.4,0,0,0,2,7.2Z" fill="#253d8f"/>
      <path id="Path_408" data-name="Path 408" d="M16.051,5.088a.4.4,0,0,0,.544.154l2-1.12a.4.4,0,0,0-.39-.7l-2,1.12a.4.4,0,0,0-.154.544Z" fill="#253d8f"/>
      <path id="Path_409" data-name="Path 409" d="M14.8,7.2a.4.4,0,0,0-.4.4v2.611a.4.4,0,1,0,.8,0V7.6A.4.4,0,0,0,14.8,7.2Z" fill="#253d8f"/>
    </g>
  </g>
</svg>
