<svg xmlns="http://www.w3.org/2000/svg" xmlns:xlink="http://www.w3.org/1999/xlink" width="24" height="24" viewBox="0 0 24 24">
  <defs>
    <clipPath id="clip-path">
      <rect id="Rectangle_328" data-name="Rectangle 328" width="24" height="24" transform="translate(282 1387)" fill="#253d8f" stroke="#707070" stroke-width="1"/>
    </clipPath>
  </defs>
  <g id="cate-6" transform="translate(-282 -1387)" clip-path="url(#clip-path)">
    <g id="air-filter" transform="translate(282 1387)">
      <g id="Group_302" data-name="Group 302">
        <g id="Group_301" data-name="Group 301">
          <path id="Path_422" data-name="Path 422" d="M23.531,2.531h-21A.469.469,0,0,0,2.063,3V5.343a.469.469,0,1,0,.937,0V3.469H5.859V5.016a.469.469,0,1,0,.937,0V3.469H8.719V5.016a.469.469,0,0,0,.937,0V3.469h1.922V19a.469.469,0,0,0,.937,0V3.469h1.922V17a.469.469,0,0,0,.937,0V3.469H17.3V19a.469.469,0,1,0,.937,0V3.469H20.2V17a.469.469,0,0,0,.937,0V3.469h1.922V20.531H9.656V18.972a.469.469,0,1,0-.937,0v1.559H6.8V18.972a.469.469,0,1,0-.937,0v1.559H3V18.656a.469.469,0,1,0-.937,0V21a.469.469,0,0,0,.469.469h21A.469.469,0,0,0,24,21V3A.469.469,0,0,0,23.531,2.531Z" fill="#253d8f"/>
        </g>
      </g>
      <g id="Group_304" data-name="Group 304">
        <g id="Group_303" data-name="Group 303">
          <path id="Path_423" data-name="Path 423" d="M10.288,11.668l-.942-.942a.469.469,0,0,0-.663.663l.142.142H8.655a3.053,3.053,0,0,0-1.383.332,2.107,2.107,0,0,1-1.912,0,3.047,3.047,0,0,0-2.765,0,2.107,2.107,0,0,1-1.912,0,.469.469,0,1,0-.427.835,3.048,3.048,0,0,0,2.765,0,2.108,2.108,0,0,1,1.912,0,3.048,3.048,0,0,0,2.765,0,2.121,2.121,0,0,1,.962-.23h.165l-.142.142a.469.469,0,1,0,.663.663l.942-.942A.469.469,0,0,0,10.288,11.668Z" fill="#253d8f"/>
        </g>
      </g>
      <g id="Group_306" data-name="Group 306">
        <g id="Group_305" data-name="Group 305">
          <path id="Path_424" data-name="Path 424" d="M10.289,15.432l-.947-.947a.469.469,0,1,0-.663.663l.147.147H8.655a3.053,3.053,0,0,0-1.383.332,2.107,2.107,0,0,1-1.912,0,3.047,3.047,0,0,0-2.765,0,2.108,2.108,0,0,1-1.912,0,.469.469,0,1,0-.427.835,3.048,3.048,0,0,0,2.765,0,2.107,2.107,0,0,1,1.912,0,3.048,3.048,0,0,0,2.765,0,2.129,2.129,0,0,1,.962-.23h.165l-.146.146a.469.469,0,1,0,.663.663l.947-.947A.469.469,0,0,0,10.289,15.432Z" fill="#253d8f"/>
        </g>
      </g>
      <g id="Group_308" data-name="Group 308">
        <g id="Group_307" data-name="Group 307">
          <path id="Path_425" data-name="Path 425" d="M10.289,7.885l-.919-.919a.469.469,0,0,0-.663.663l.119.119H8.655a3.053,3.053,0,0,0-1.383.332,2.107,2.107,0,0,1-1.912,0,3.047,3.047,0,0,0-2.765,0,2.107,2.107,0,0,1-1.912,0,.469.469,0,1,0-.427.835,3.047,3.047,0,0,0,2.765,0,2.108,2.108,0,0,1,1.912,0,3.047,3.047,0,0,0,2.765,0,2.112,2.112,0,0,1,.957-.23h.17L8.706,8.8a.469.469,0,1,0,.663.663l.919-.919A.469.469,0,0,0,10.289,7.885Z" fill="#253d8f"/>
        </g>
      </g>
      <g id="Group_310" data-name="Group 310">
        <g id="Group_309" data-name="Group 309">
          <path id="Path_426" data-name="Path 426" d="M21,18.665a.469.469,0,1,0,.137.331A.472.472,0,0,0,21,18.665Z" fill="#253d8f"/>
        </g>
      </g>
      <g id="Group_312" data-name="Group 312">
        <g id="Group_311" data-name="Group 311">
          <path id="Path_427" data-name="Path 427" d="M15.238,18.665a.469.469,0,1,0,.137.331A.472.472,0,0,0,15.238,18.665Z" fill="#253d8f"/>
        </g>
      </g>
    </g>
  </g>
</svg>
