<svg xmlns="http://www.w3.org/2000/svg" xmlns:xlink="http://www.w3.org/1999/xlink" width="24" height="24" viewBox="0 0 24 24">
  <defs>
    <clipPath id="clip-path">
      <rect id="Rectangle_325" data-name="Rectangle 325" width="24" height="24" transform="translate(282 1198)" fill="#253d8f" stroke="#707070" stroke-width="1"/>
    </clipPath>
  </defs>
  <g id="cate-3" transform="translate(-282 -1198)" clip-path="url(#clip-path)">
    <g id="solar-panel" transform="translate(277.637 1193.636)">
      <path id="Path_414" data-name="Path 414" d="M28.186,10.387a.436.436,0,0,0-.259-.787H24.873a.437.437,0,0,0-.259.085l-2.389,1.766-.719-.959,1.047-.784A.436.436,0,0,0,22.64,9.1L21.8,7.979a.437.437,0,0,0-.611-.088L7.015,18.517a.437.437,0,0,0-.088.611l.838,1.117a.436.436,0,0,0,.611.088l.909-.681.658.878-5.4,3.993a.436.436,0,0,0,.259.787H7.855a.437.437,0,0,0,.259-.085l2.359-1.743v4.447a.436.436,0,0,0,.873,0V22.835ZM8.2,19.373l-.314-.419,13.478-10.1.314.419L9.111,18.691h0Zm1.782-.245,10.825-8.113.715.954L10.644,20.01ZM7.711,24.436H6.124L25.016,10.473H26.6Z" fill="#253d8f"/>
      <path id="Path_415" data-name="Path 415" d="M27.927,19.2H22.254a.436.436,0,0,0-.436.436v8.291a.436.436,0,0,0,.873,0V20.073h5.236a.436.436,0,0,0,0-.873Z" fill="#253d8f"/>
      <path id="Path_416" data-name="Path 416" d="M27.927,20.509H23.564a.436.436,0,0,0-.436.436v6.982a.436.436,0,0,0,.873,0V21.382h3.927a.436.436,0,0,0,0-.873Z" fill="#253d8f"/>
      <path id="Path_417" data-name="Path 417" d="M9.164,10.473A3.055,3.055,0,1,0,6.109,7.418,3.058,3.058,0,0,0,9.164,10.473Zm0-5.236A2.182,2.182,0,1,1,6.982,7.418,2.184,2.184,0,0,1,9.164,5.236Z" fill="#253d8f"/>
      <path id="Path_418" data-name="Path 418" d="M7.789,7.781a.436.436,0,0,0,.433-.39.875.875,0,0,1,.961-.775.436.436,0,0,0,.093-.868A1.747,1.747,0,0,0,7.354,7.3a.436.436,0,0,0,.387.48l.047,0Z" fill="#253d8f"/>
      <path id="Path_419" data-name="Path 419" d="M11.91,10.164a.436.436,0,0,0,0,.617l1.309,1.309a.436.436,0,0,0,.617-.617l-1.309-1.309a.436.436,0,0,0-.617,0Z" fill="#253d8f"/>
      <path id="Path_420" data-name="Path 420" d="M13.527,7.855h2.182a.436.436,0,1,0,0-.873H13.527a.436.436,0,1,0,0,.873Z" fill="#253d8f"/>
      <path id="Path_421" data-name="Path 421" d="M8.727,11.782v1.745a.436.436,0,0,0,.873,0V11.782a.436.436,0,0,0-.873,0Z" fill="#253d8f"/>
    </g>
  </g>
</svg>
