<svg xmlns="http://www.w3.org/2000/svg" xmlns:xlink="http://www.w3.org/1999/xlink" width="24" height="24" viewBox="0 0 24 24">
  <defs>
    <clipPath id="clip-path">
      <rect id="Rectangle_324" data-name="Rectangle 324" width="24" height="24" transform="translate(282 1135)" fill="#253d8f" stroke="#707070" stroke-width="1"/>
    </clipPath>
  </defs>
  <g id="cate-2" transform="translate(-282 -1135)" clip-path="url(#clip-path)">
    <g id="Layer_67" data-name="Layer 67" transform="translate(280.759 1133.759)">
      <path id="Path_410" data-name="Path 410" d="M21.1,25.241H5.379v-24H21.1Zm-14.9-.828H20.276V2.069H6.207Z" fill="#253d8f"/>
      <path id="Path_411" data-name="Path 411" d="M19.034,25.241H7.448V3.31H19.034ZM8.276,24.414h9.931V4.138H8.276Z" fill="#253d8f"/>
      <path id="Path_412" data-name="Path 412" d="M3.724,24.414H22.759v.828H3.724Z" fill="#253d8f"/>
      <path id="Path_413" data-name="Path 413" d="M10.138,16.552a1.034,1.034,0,1,1,1.034-1.034A1.034,1.034,0,0,1,10.138,16.552Zm0-1.241a.207.207,0,1,0,.207.207A.207.207,0,0,0,10.138,15.31Z" fill="#253d8f"/>
    </g>
  </g>
</svg>
