<svg xmlns="http://www.w3.org/2000/svg" xmlns:xlink="http://www.w3.org/1999/xlink" width="50" height="50" viewBox="0 0 50 50">
  <defs>
    <clipPath id="clip-path">
      <rect id="Rectangle_196" data-name="Rectangle 196" width="50" height="50" transform="translate(255 547)" fill="#253d8f" stroke="#707070" stroke-width="1"/>
    </clipPath>
  </defs>
  <g id="icon-phone" transform="translate(-255 -547)" clip-path="url(#clip-path)">
    <g id="Layer_3" data-name="Layer 3" transform="translate(255 547)">
      <path id="Path_300" data-name="Path 300" d="M50.725,38.323c-.088-.073-10.07-7.217-12.778-6.748-1.3.23-2.047,1.117-3.538,2.9-.24.287-.818.972-1.265,1.46a20.764,20.764,0,0,1-2.752-1.12A22.833,22.833,0,0,1,19.857,24.275a20.763,20.763,0,0,1-1.12-2.752c.49-.448,1.177-1.027,1.47-1.273,1.768-1.483,2.655-2.228,2.885-3.532.472-2.7-6.675-12.688-6.748-12.778A3.815,3.815,0,0,0,13.5,2.333c-2.9,0-11.167,10.727-11.167,12.535,0,.1.152,10.778,13.313,24.167,13.373,13.147,24.047,13.3,24.152,13.3,1.808,0,12.535-8.27,12.535-11.167a3.812,3.812,0,0,0-1.608-2.843ZM39.615,48.99c-1.457-.12-10.413-1.3-21.612-12.3C6.945,25.428,5.793,16.447,5.678,15.055a45.09,45.09,0,0,1,7.843-9.268c.067.067.155.167.268.3a58.985,58.985,0,0,1,5.957,10.105,19.81,19.81,0,0,1-1.693,1.518,16.722,16.722,0,0,0-2.52,2.37l-.405.567.12.685a19.03,19.03,0,0,0,1.608,4.4,26.183,26.183,0,0,0,12.08,12.078,18.981,18.981,0,0,0,4.4,1.61l.685.12.567-.4a16.861,16.861,0,0,0,2.38-2.53c.522-.623,1.22-1.455,1.483-1.69a58.606,58.606,0,0,1,10.13,5.963c.138.117.235.207.3.265a45.052,45.052,0,0,1-9.268,7.845Z" transform="translate(-2.333 -2.333)" fill="#253d8f"/>
    </g>
  </g>
</svg>
