<svg xmlns="http://www.w3.org/2000/svg" xmlns:xlink="http://www.w3.org/1999/xlink" width="24" height="24" viewBox="0 0 24 24">
  <defs>
    <clipPath id="clip-path">
      <rect id="Rectangle_173" data-name="Rectangle 173" width="24" height="24" transform="translate(255 774)" fill="#253d8f" stroke="#707070" stroke-width="1"/>
    </clipPath>
  </defs>
  <g id="icon-tab-7" transform="translate(-255 -774)" clip-path="url(#clip-path)">
    <g id="pharmacy" transform="translate(255 774)">
      <path id="Path_280" data-name="Path 280" d="M21.5,4.433l-1.213.97a2.736,2.736,0,0,1-1.7.6h-1.4a4.206,4.206,0,0,0-2.36.721l.08-1.7a3.352,3.352,0,1,0-5.813,0l.08,1.7A4.206,4.206,0,0,0,6.813,6h-1.4a2.736,2.736,0,0,1-1.7-.6L2.5,4.433H1.318v3.7A3.976,3.976,0,0,0,5.29,12.109H6.8v.922a2.206,2.206,0,0,0,2.2,2.2h.57l.074,1.594H9a2.2,2.2,0,1,0,0,4.406h.85l.035.747a2.118,2.118,0,0,0,4.23,0l.035-.747H15a.8.8,0,0,1,.8.8H17.2a2.206,2.206,0,0,0-2.2-2.2h-.784l.074-1.594H15a2.2,2.2,0,0,0,0-4.406h-.5l.08-1.719H18.71a3.976,3.976,0,0,0,3.972-3.972v-3.7ZM5.29,10.7A2.568,2.568,0,0,1,2.724,8.138V6.413a4.214,4.214,0,0,0,2.692.994h1.4A2.825,2.825,0,0,1,9.272,8.846L9.359,10.7ZM9,13.828a.8.8,0,0,1-.8-.8v-.922H9.424l.08,1.719Zm0,6a.8.8,0,0,1,0-1.594h.71l.074,1.594Zm3.711,2.087a.711.711,0,0,1-1.421,0l-.032-.681h1.485Zm.1-2.087H11.192l-.214-4.594h2.044Zm.28-6H10.912L10.565,6.38a3.345,3.345,0,0,0,2.87,0ZM12,5.3a1.945,1.945,0,1,1,1.945-1.945A1.948,1.948,0,0,1,12,5.3Zm3,9.937a.8.8,0,0,1,0,1.594h-.644l.074-1.594Zm6.276-7.1A2.568,2.568,0,0,1,18.71,10.7H14.641l.087-1.857a2.825,2.825,0,0,1,2.459-1.439h1.4a4.121,4.121,0,0,0,2.692-.994V8.138Z" fill="#253d8f"/>
    </g>
  </g>
</svg>
