<svg xmlns="http://www.w3.org/2000/svg" xmlns:xlink="http://www.w3.org/1999/xlink" width="24" height="24" viewBox="0 0 24 24">
  <defs>
    <clipPath id="clip-path">
      <rect id="Rectangle_169" data-name="Rectangle 169" width="24" height="24" transform="translate(255 602.75)" fill="#253d8f" stroke="#707070" stroke-width="1"/>
    </clipPath>
  </defs>
  <g id="icon-tab-5" transform="translate(-255 -602.75)" clip-path="url(#clip-path)">
    <g id="caliper_1_" data-name="caliper (1)" transform="translate(250.566 598.387)">
      <path id="Path_292" data-name="Path 292" d="M24.761,8.819a.448.448,0,0,0,.448-.448V6.719a.448.448,0,0,0-.327-.431L18.1,4.379a.45.45,0,0,0-.121-.017H11.85a.448.448,0,0,0-.2.049L7.9,6.319a.448.448,0,0,0-.245.4V8.371a.448.448,0,0,0,.448.448h3.3v3.212h-3.3a.448.448,0,0,0-.448.448v1.14a.448.448,0,0,0,.256.4l2.132,1.018v3.372a.448.448,0,0,0,.448.448H11.4v9.053a.448.448,0,0,0,.448.448h6.131a.448.448,0,0,0,.448-.448V18.861h.909a.448.448,0,0,0,.448-.448V15.121l5.067-1.065a.448.448,0,0,0,.356-.438v-1.14a.448.448,0,0,0-.448-.448H18.428V8.819Zm-16.207-.9V6.993l3.4-1.735h5.962l6.393,1.8v.865H17.98a.448.448,0,0,0-.448.448V12.03H12.3V8.371a.448.448,0,0,0-.448-.448Zm8.979,19.544H12.3v-8.6h.75a.448.448,0,0,0,.448-.448V16.549a1.419,1.419,0,0,1,2.838,0v1.864a.448.448,0,0,0,.448.448h.75Zm1.8-14.539h4.975v.328l-5.067,1.064a.448.448,0,0,0-.356.438v3.207h-1.66V16.548a2.315,2.315,0,0,0-4.63,0v1.416H10.941V14.758a.448.448,0,0,0-.256-.4L8.554,13.335v-.41h1.939Z" fill="#253d8f"/>
      <path id="Path_293" data-name="Path 293" d="M15.491,8.819h.779a.448.448,0,0,0,0-.9h-.779a.448.448,0,1,0,0,.9Z" fill="#253d8f"/>
      <path id="Path_294" data-name="Path 294" d="M15.491,10.873h.779a.448.448,0,0,0,0-.9h-.779a.448.448,0,0,0,0,.9Z" fill="#253d8f"/>
      <path id="Path_295" data-name="Path 295" d="M16.27,20.244h-.779a.448.448,0,0,0,0,.9h.779a.448.448,0,1,0,0-.9Z" fill="#253d8f"/>
      <path id="Path_296" data-name="Path 296" d="M16.27,22.3h-.779a.448.448,0,0,0,0,.9h.779a.448.448,0,0,0,0-.9Z" fill="#253d8f"/>
      <path id="Path_297" data-name="Path 297" d="M16.27,24.351h-.779a.448.448,0,0,0,0,.9h.779a.448.448,0,1,0,0-.9Z" fill="#253d8f"/>
    </g>
  </g>
</svg>
