<svg xmlns="http://www.w3.org/2000/svg" xmlns:xlink="http://www.w3.org/1999/xlink" width="40" height="40" viewBox="0 0 40 40">
  <defs>
    <clipPath id="clip-path">
      <rect id="Rectangle_507" data-name="Rectangle 507" width="40" height="40" transform="translate(545 2187)" fill="#253d8f" stroke="#707070" stroke-width="1"/>
    </clipPath>
  </defs>
  <g id="icon-core-3" transform="translate(-545 -2187)" clip-path="url(#clip-path)">
    <g id="dollar_2_" data-name="dollar (2)" transform="translate(545 2187)">
      <g id="Group_381" data-name="Group 381">
        <g id="Group_380" data-name="Group 380">
          <path id="Path_635" data-name="Path 635" d="M39.992,21.526c-.048-1.108-1.132-1.992-3.228-2.63a23,23,0,0,0-5.921-.829v-8.5a.862.862,0,0,0-.12-.4c-.223-.964-1.3-1.745-3.2-2.319a23.728,23.728,0,0,0-6.6-.837,23.132,23.132,0,0,0-6.535.837c-1.443.446-3.172,1.275-3.172,2.7a1.467,1.467,0,0,0,.024.263l.088,3.634a9.537,9.537,0,1,0,4.224,16.768,23.569,23.569,0,0,0,5.1.558c.406,2.208,5.188,3.22,9.643,3.22a22.809,22.809,0,0,0,6.535-.853C38.271,32.692,40,31.855,40,30.428V21.678A.965.965,0,0,0,39.992,21.526ZM29.177,13.971c0,.1-.383.654-2.112,1.18a22.559,22.559,0,0,1-6.137.773,22.8,22.8,0,0,1-5.427-.6c-.024-.008-.04-.008-.064-.016A9.2,9.2,0,0,0,12.943,13.9l-.056-2.247a8.83,8.83,0,0,0,1.721.661,23.556,23.556,0,0,0,6.32.773,23.769,23.769,0,0,0,6.6-.837,9.558,9.558,0,0,0,1.729-.693v2.088A.458.458,0,0,0,29.177,13.971ZM14.864,8.384a21.528,21.528,0,0,1,6.057-.773,22.251,22.251,0,0,1,6.137.773c1.729.526,2.112,1.068,2.112,1.172s-.391.661-2.12,1.18a22.52,22.52,0,0,1-6.129.765,21.882,21.882,0,0,1-5.874-.717c-1.713-.494-2.192-1.036-2.232-1.211,0-.016-.008-.016-.008-.016C12.815,9.4,13.182,8.894,14.864,8.384Zm.024,20.307A7.943,7.943,0,1,1,9.54,14.879a8.117,8.117,0,0,1,2.351.351,7.976,7.976,0,0,1,5.435,5.985,8.335,8.335,0,0,1,.159,1.6A7.9,7.9,0,0,1,14.887,28.691Zm2.024.175a9.623,9.623,0,0,0,1.53-2.622c.677.056,1.379.1,2.112.1v.143l.048,2.7A24.9,24.9,0,0,1,16.912,28.866Zm2.128-7c.462.032.948.048,1.443.056l.048,2.821c-.558-.008-1.108-.032-1.634-.072a9.8,9.8,0,0,0,.183-1.865C19.079,22.5,19.064,22.188,19.04,21.869ZM21,20.339h-.08c-.765,0-1.506-.032-2.192-.08A9.448,9.448,0,0,0,17.3,17.294a28.7,28.7,0,0,0,3.61.231,23.788,23.788,0,0,0,6.607-.837A10.065,10.065,0,0,0,29.241,16v2.088C25.822,18.187,22.307,18.9,21,20.339Zm1.052,1.267a.06.06,0,0,1,.008-.032c.072-.215.638-.741,2.287-1.2a21.69,21.69,0,0,1,5.682-.677h.135a22.336,22.336,0,0,1,6.137.757c1.7.51,2.1,1.036,2.1,1.156v.008c-.008.12-.406.669-2.176,1.2a22.139,22.139,0,0,1-6.057.749,22.232,22.232,0,0,1-5.874-.709c-1.713-.494-2.184-1.044-2.232-1.211ZM36.366,31.624A21.278,21.278,0,0,1,30.3,32.4a21.687,21.687,0,0,1-6.049-.757C22.57,31.13,22.22,30.6,22.22,30.476V30.46l-.04-2.311a10.384,10.384,0,0,0,1.984.725,24.527,24.527,0,0,0,5.985.685,23.568,23.568,0,0,0,6.583-.837,10.215,10.215,0,0,0,1.674-.677v2.391h.008C38.414,30.548,38.047,31.1,36.366,31.624Zm2.056-5.866h-.008c0,.08-.048.175-.048.263,0,.112-.375.654-2.1,1.18a22.05,22.05,0,0,1-6.113.765c-4.415,0-7.388-1-8.01-1.769l-.008-.669-.032-1.833a9.779,9.779,0,0,0,1.737.669,23.556,23.556,0,0,0,6.32.773,23.855,23.855,0,0,0,6.511-.813,9.127,9.127,0,0,0,1.745-.685Z" fill="#253d8f"/>
        </g>
      </g>
      <g id="Group_383" data-name="Group 383">
        <g id="Group_382" data-name="Group 382">
          <path id="Path_636" data-name="Path 636" d="M12.441,23.941a3.013,3.013,0,0,0-2.9-2.192,1.415,1.415,0,1,1,1.419-1.411.8.8,0,1,0,1.594,0,3.013,3.013,0,0,0-2.192-2.9v-.359a.8.8,0,1,0-1.594,0v.343a3.008,3.008,0,0,0,.773,5.914,1.415,1.415,0,1,1-1.411,1.419.8.8,0,1,0-1.594,0,3.027,3.027,0,0,0,2.232,2.909v.693a.8.8,0,1,0,1.594,0v-.7A3.006,3.006,0,0,0,12.441,23.941Z" fill="#253d8f"/>
        </g>
      </g>
    </g>
  </g>
</svg>
