<svg xmlns="http://www.w3.org/2000/svg" xmlns:xlink="http://www.w3.org/1999/xlink" width="24" height="24" viewBox="0 0 24 24">
  <defs>
    <clipPath id="clip-path">
      <rect id="Rectangle_174" data-name="Rectangle 174" width="24" height="24" transform="translate(255 835)" fill="#253d8f" stroke="#707070" stroke-width="1"/>
    </clipPath>
  </defs>
  <g id="icon-tab-8" transform="translate(-255 -835)" clip-path="url(#clip-path)">
    <g id="service" transform="translate(255 835)">
      <path id="Path_284" data-name="Path 284" d="M5.907,8.906h.382q.082.223.181.439L6.2,9.614a.7.7,0,0,0,0,.994L8.189,12.6a.7.7,0,0,0,.994,0l.269-.269q.215.1.439.181v.382a.7.7,0,0,0,.7.7h2.813a.7.7,0,0,0,.7-.7v-.382q.223-.082.439-.181l.269.269a.7.7,0,0,0,.994,0L17.8,10.609a.7.7,0,0,0,0-.994l-.269-.269q.1-.215.181-.439h.382a.7.7,0,0,0,.7-.7V5.391a.7.7,0,0,0-.7-.7h-.382q-.082-.223-.181-.439L17.8,3.98a.7.7,0,0,0,0-.994L15.812,1a.7.7,0,0,0-.994,0l-.269.269q-.215-.1-.439-.181V.7a.7.7,0,0,0-.7-.7H10.594a.7.7,0,0,0-.7.7v.382q-.223.082-.439.181L9.183,1a.7.7,0,0,0-.994,0L6.2,2.985a.7.7,0,0,0,0,.994l.269.269q-.1.215-.181.439H5.907a.7.7,0,0,0-.7.7V8.2a.7.7,0,0,0,.7.7Zm.7-2.813H6.8a.7.7,0,0,0,.679-.52,4.655,4.655,0,0,1,.458-1.109.7.7,0,0,0-.112-.848l-.135-.135.994-.994.135.135a.7.7,0,0,0,.848.112,4.656,4.656,0,0,1,1.109-.458A.7.7,0,0,0,11.3,1.6V1.406H12.7V1.6a.7.7,0,0,0,.52.679,4.657,4.657,0,0,1,1.109.458.7.7,0,0,0,.848-.112l.135-.135.994.994-.135.135a.7.7,0,0,0-.112.848,4.659,4.659,0,0,1,.458,1.109.7.7,0,0,0,.679.52h.192V7.5H17.2a.7.7,0,0,0-.679.52,4.659,4.659,0,0,1-.458,1.109.7.7,0,0,0,.112.848l.135.135-.994.994-.135-.135a.7.7,0,0,0-.848-.112,4.656,4.656,0,0,1-1.109.458A.7.7,0,0,0,12.7,12v.192H11.3V12a.7.7,0,0,0-.52-.679,4.659,4.659,0,0,1-1.109-.458.7.7,0,0,0-.848.112l-.135.135-.994-.994.135-.135a.7.7,0,0,0,.112-.848A4.656,4.656,0,0,1,7.48,8.02.7.7,0,0,0,6.8,7.5H6.61V6.094Z" fill="#253d8f"/>
      <path id="Path_285" data-name="Path 285" d="M12,9.844A3.047,3.047,0,1,0,8.953,6.8,3.05,3.05,0,0,0,12,9.844Zm0-4.688A1.641,1.641,0,1,1,10.36,6.8,1.642,1.642,0,0,1,12,5.156Z" fill="#253d8f"/>
      <path id="Path_286" data-name="Path 286" d="M22.264,16.149a2.109,2.109,0,0,0-2.881-.772L15.411,17.67a2.111,2.111,0,0,1-.709.254,2.11,2.11,0,0,0-2-2.784H8.39a4.424,4.424,0,0,0-3.149,1.3L1.659,20.026a.7.7,0,0,0,.165,1.117l5.182,2.773a.7.7,0,0,0,.829-.123l1.28-1.28a1.164,1.164,0,0,1,.829-.343H15.11a3.52,3.52,0,0,0,1.758-.471l4.625-2.67a2.112,2.112,0,0,0,.772-2.881Zm-1.475,1.664-4.625,2.67a2.112,2.112,0,0,1-1.055.283H9.944a2.561,2.561,0,0,0-1.823.755l-.911.911-3.886-2.08,2.912-2.912a3.027,3.027,0,0,1,2.154-.892H12.7a.7.7,0,1,1,0,1.406H10.36a.7.7,0,0,0,0,1.406h4a3.52,3.52,0,0,0,1.758-.471l3.972-2.293a.7.7,0,0,1,.7,1.218Z" fill="#253d8f"/>
    </g>
  </g>
</svg>
