<svg xmlns="http://www.w3.org/2000/svg" xmlns:xlink="http://www.w3.org/1999/xlink" width="40" height="40" viewBox="0 0 40 40">
  <defs>
    <clipPath id="clip-path">
      <rect id="Rectangle_511" data-name="Rectangle 511" width="40" height="40" transform="translate(1335 2588)" fill="#253d8f" stroke="#707070" stroke-width="1"/>
    </clipPath>
  </defs>
  <g id="icon-core-9" transform="translate(-1335 -2588)" clip-path="url(#clip-path)">
    <path id="graph" d="M5.724,27.516H.541A.54.54,0,0,0,0,28.057v11.4A.54.54,0,0,0,.541,40H5.724a.54.54,0,0,0,.541-.541v-11.4A.54.54,0,0,0,5.724,27.516Zm-.541,11.4h-4.1V28.6h4.1V38.919Zm11.786-18.4H11.786a.54.54,0,0,0-.541.541v18.4a.54.54,0,0,0,.541.541h5.183a.54.54,0,0,0,.541-.541v-18.4a.54.54,0,0,0-.541-.54Zm-.541,18.4h-4.1V21.6h4.1ZM28.214,15.768H23.031a.54.54,0,0,0-.541.541V39.459a.54.54,0,0,0,.541.541h5.183a.54.54,0,0,0,.541-.541V16.308A.54.54,0,0,0,28.214,15.768Zm-.541,23.151h-4.1V16.849h4.1ZM39.459,9.894H34.277a.54.54,0,0,0-.541.541V39.459a.54.54,0,0,0,.541.541h5.183A.54.54,0,0,0,40,39.459V10.434a.54.54,0,0,0-.541-.541Zm-.541,29.025h-4.1V10.975h4.1ZM.03,22.039a.541.541,0,0,1,.333-.688A99.853,99.853,0,0,0,34.921,1.163l-2.75.149A.54.54,0,0,1,32.113.232L36.376,0a.54.54,0,0,1,.564.618l-.615,4.225a.541.541,0,0,1-.534.463.549.549,0,0,1-.079-.006.541.541,0,0,1-.457-.613l.4-2.73A100.926,100.926,0,0,1,.718,22.371a.54.54,0,0,1-.688-.333Z" transform="translate(1335 2588)" fill="#253d8f"/>
  </g>
</svg>
