<svg xmlns="http://www.w3.org/2000/svg" xmlns:xlink="http://www.w3.org/1999/xlink" width="24" height="24" viewBox="0 0 24 24">
  <defs>
    <clipPath id="clip-path">
      <rect id="Rectangle_162" data-name="Rectangle 162" width="24" height="24" transform="translate(255 431.75)" fill="#253d8f" stroke="#707070" stroke-width="1"/>
    </clipPath>
  </defs>
  <g id="icon-tab-2" transform="translate(-255 -431.75)" clip-path="url(#clip-path)">
    <g id="winch" transform="translate(255 431.75)">
      <g id="Group_202" data-name="Group 202">
        <g id="Group_201" data-name="Group 201">
          <path id="Path_262" data-name="Path 262" d="M22.421,22.96H19.793V21.2a.52.52,0,0,0-.52-.52H17.691V18.853a.52.52,0,0,0-.52-.52H15.746V9.093h4.18a.52.52,0,0,0,.52-.52V4.884a.52.52,0,0,0-.52-.52H18.119L14.73,1.338V.52A.52.52,0,0,0,14.21,0H11.945a.52.52,0,0,0-.52.52v.818L8.035,4.364H4.074a.52.52,0,0,0-.52.52V8.572h0v6.076a.52.52,0,0,0,.52.52h.669v.576a1.48,1.48,0,1,0,1.648,2.279.52.52,0,0,0-.841-.612.44.44,0,1,1-.356-.7h.069a.52.52,0,0,0,.52-.52V15.169h.675a.52.52,0,0,0,.52-.52V9.093h3.43v9.24H8.983a.52.52,0,0,0-.52.52v1.826H6.881a.52.52,0,0,0-.52.52V22.96H3.294a.52.52,0,1,0,0,1.04H22.421a.52.52,0,0,0,0-1.04ZM14.73,2.731l1.828,1.632H14.73ZM13.077,1.256l.613.547V4.364H12.464V1.8h0ZM11.425,2.731V4.364H9.6Zm-5.486,11.4H5.6a.519.519,0,0,0-.671,0H4.594V9.093H5.939v5.036Zm.52-6.076H4.594v-.8H15.983a.52.52,0,1,0,0-1.04H4.594V5.4H19.405v2.65H6.458Zm8.248,9.125v1.154H12.259Zm-3.258.387V14.558l2.663,1.752Zm.536-3.9,2.722-1.52v3.311Zm-.536-.892V9.534l2.71,1.726Zm1.243-3.681h2.015v1.284ZM9.5,19.373h7.148v1.306H9.5Zm9.25,3.587H7.4V21.719H18.753V22.96Z" fill="#253d8f"/>
        </g>
      </g>
      <g id="Group_204" data-name="Group 204">
        <g id="Group_203" data-name="Group 203">
          <path id="Path_263" data-name="Path 263" d="M1.946,23.112a.5.5,0,0,0-.079-.064A.533.533,0,0,0,1.777,23a.527.527,0,0,0-.1-.03.515.515,0,0,0-.2,0,.524.524,0,0,0-.1.03.53.53,0,0,0-.089.048.5.5,0,0,0-.079.064.52.52,0,0,0,0,.735.519.519,0,0,0,.169.113.525.525,0,0,0,.1.03.517.517,0,0,0,.1.01.512.512,0,0,0,.1-.01.525.525,0,0,0,.1-.03.514.514,0,0,0,.169-.113.494.494,0,0,0,.064-.079.527.527,0,0,0,.048-.089.543.543,0,0,0,.03-.1.513.513,0,0,0,.01-.1A.524.524,0,0,0,1.946,23.112Z" fill="#253d8f"/>
        </g>
      </g>
      <g id="Group_206" data-name="Group 206">
        <g id="Group_205" data-name="Group 205">
          <path id="Path_264" data-name="Path 264" d="M18.208,6.627a.525.525,0,0,0-.03-.1.533.533,0,0,0-.048-.09.515.515,0,0,0-.144-.143.522.522,0,0,0-.187-.077.515.515,0,0,0-.2,0,.522.522,0,0,0-.1.03.548.548,0,0,0-.09.048.517.517,0,0,0-.221.534.528.528,0,0,0,.03.1.554.554,0,0,0,.048.09.516.516,0,0,0,.233.191.525.525,0,0,0,.1.03.522.522,0,0,0,.469-.142.513.513,0,0,0,.113-.169.524.524,0,0,0,.03-.1.531.531,0,0,0,0-.2Z" fill="#253d8f"/>
        </g>
      </g>
    </g>
  </g>
</svg>
