<svg xmlns="http://www.w3.org/2000/svg" xmlns:xlink="http://www.w3.org/1999/xlink" width="40" height="40" viewBox="0 0 40 40">
  <defs>
    <clipPath id="clip-path">
      <rect id="Rectangle_512" data-name="Rectangle 512" width="40" height="40" transform="translate(1335 1785)" fill="#253d8f" stroke="#707070" stroke-width="1"/>
    </clipPath>
  </defs>
  <g id="icon-core-5" transform="translate(-1335 -1785)" clip-path="url(#clip-path)">
    <g id="save-money" transform="translate(1337.35 1785)">
      <path id="Path_645" data-name="Path 645" d="M18.114,21.83a.625.625,0,0,0-.225-.008,1.492,1.492,0,0,1-1.319-1.479.656.656,0,0,0-1.312,0,2.807,2.807,0,0,0,2.064,2.7V23.7a.656.656,0,0,0,1.312,0v-.616a2.8,2.8,0,0,0-.574-5.544,1.49,1.49,0,1,1,1.49-1.49.656.656,0,0,0,1.312,0,2.807,2.807,0,0,0-2.228-2.743v-.6a.656.656,0,0,0-1.312,0v.637a2.8,2.8,0,0,0,.738,5.5,1.489,1.489,0,0,1,.054,2.977Zm0,0" fill="#253d8f"/>
      <path id="Path_646" data-name="Path 646" d="M8.546,18.248A9.514,9.514,0,1,0,18.06,8.734,9.514,9.514,0,0,0,8.546,18.248Zm9.514-8.2a8.2,8.2,0,1,1-8.2,8.2A8.2,8.2,0,0,1,18.06,10.046Zm0,0" fill="#253d8f"/>
      <path id="Path_647" data-name="Path 647" d="M30.809,29.38l-5.14,2.428a4.186,4.186,0,0,0-3.569-2.2l-4.745-.13a5.011,5.011,0,0,1-2.156-.557l-.483-.25a8.516,8.516,0,0,0-7.888.008l.03-1.094a.656.656,0,0,0-.638-.674l-5.2-.143a.656.656,0,0,0-.674.638L.03,38.821a.656.656,0,0,0,.638.674l5.2.143h.018A.656.656,0,0,0,6.544,39l.015-.546,1.352-.724a2.318,2.318,0,0,1,1.73-.189l8.071,2.265.043.011A8.64,8.64,0,0,0,19.529,40a8.754,8.754,0,0,0,3.657-.8.609.609,0,0,0,.081-.045l11.7-7.57a.656.656,0,0,0,.215-.874,3.314,3.314,0,0,0-4.377-1.333ZM1.36,38.2,1.638,28.1l3.891.107L5.251,38.309ZM22.6,38.03a7.439,7.439,0,0,1-4.549.508L10,36.278a3.628,3.628,0,0,0-2.7.3l-.691.37.185-6.719a7.212,7.212,0,0,1,7.327-.391l.483.25a6.337,6.337,0,0,0,2.724.7l4.745.13A2.878,2.878,0,0,1,24.8,33.211l-7.068-.2a.656.656,0,1,0-.036,1.312l7.8.215h.018a.656.656,0,0,0,.655-.638,4.164,4.164,0,0,0-.063-.851l5.272-2.491.015-.007a2,2,0,0,1,2.267.317Zm0,0" fill="#253d8f"/>
      <path id="Path_648" data-name="Path 648" d="M18.716,6.889V.656a.656.656,0,0,0-1.312,0V6.889a.656.656,0,1,0,1.312,0Zm0,0" fill="#253d8f"/>
      <path id="Path_649" data-name="Path 649" d="M23.637,6.889V3.937a.656.656,0,0,0-1.312,0V6.889a.656.656,0,1,0,1.312,0Zm0,0" fill="#253d8f"/>
      <path id="Path_650" data-name="Path 650" d="M13.8,6.889V3.937a.656.656,0,1,0-1.312,0V6.889a.656.656,0,1,0,1.312,0Zm0,0" fill="#253d8f"/>
    </g>
  </g>
</svg>
