<svg xmlns="http://www.w3.org/2000/svg" xmlns:xlink="http://www.w3.org/1999/xlink" width="50" height="50" viewBox="0 0 50 50">
  <defs>
    <clipPath id="clip-path">
      <rect id="Rectangle_132" data-name="Rectangle 132" width="50" height="50" transform="translate(1455 425)" stroke="#707070" stroke-width="1"/>
    </clipPath>
  </defs>
  <g id="icon-slide" transform="translate(-1455 -425)" clip-path="url(#clip-path)">
    <g id="slide" transform="translate(1455 425)">
      <g id="Group_174" data-name="Group 174">
        <g id="Group_173" data-name="Group 173">
          <path id="Path_201" data-name="Path 201" d="M16.984,5.705H9.961l4.1-4.1L12.455,0,5.617,6.84l6.847,6.849,1.6-1.6L9.961,7.975h7.024Z"/>
        </g>
      </g>
      <g id="Group_176" data-name="Group 176">
        <g id="Group_175" data-name="Group 175">
          <path id="Path_202" data-name="Path 202" d="M39.751,0l-1.6,1.6,4.1,4.1H35.165V7.975h7.083l-4.11,4.11,1.6,1.6L46.591,6.84Z"/>
        </g>
      </g>
      <g id="Group_178" data-name="Group 178">
        <g id="Group_177" data-name="Group 177">
          <path id="Path_203" data-name="Path 203" d="M43.775,28.071a1.476,1.476,0,0,0-.293-.231A9.06,9.06,0,0,0,32.246,29.1l-1.6,1.607V9.114a4.539,4.539,0,1,0-9.078,0V19.1a4.468,4.468,0,0,0-6.121-.824L5.669,23.933a4.52,4.52,0,0,0-2.26,3.91v7.464A14.677,14.677,0,0,0,28.227,45.933l0,.02.252-.252.011-.011L43.775,30.406A1.648,1.648,0,0,0,43.775,28.071ZM26.661,44.29A12.409,12.409,0,0,1,5.678,35.305V27.841A2.233,2.233,0,0,1,6.815,25.9l9.949-5.785a2.2,2.2,0,0,1,3.041.413L21.821,23a1.134,1.134,0,0,0,2.013-.717V9.114a2.269,2.269,0,1,1,4.539,0V31.8a2.245,2.245,0,0,0,1.457,2.1.994.994,0,0,0,1.055-.227l2.966-2.966a6.813,6.813,0,0,1,7.743-1.328Z"/>
        </g>
      </g>
    </g>
  </g>
</svg>
