<svg xmlns="http://www.w3.org/2000/svg" xmlns:xlink="http://www.w3.org/1999/xlink" width="40" height="40" viewBox="0 0 40 40">
  <defs>
    <clipPath id="clip-path">
      <rect id="Rectangle_513" data-name="Rectangle 513" width="40" height="40" transform="translate(1335 1985)" fill="#253d8f" stroke="#707070" stroke-width="1"/>
    </clipPath>
  </defs>
  <g id="icon-core-6" transform="translate(-1335 -1985)" clip-path="url(#clip-path)">
    <g id="Idea" transform="translate(1332.143 1982.143)">
      <path id="Path_637" data-name="Path 637" d="M30.954,11.664A12.139,12.139,0,1,0,17.143,31.416v7.155A1.43,1.43,0,0,0,18.571,40H20v1.429a1.43,1.43,0,0,0,1.429,1.429h2.857a1.43,1.43,0,0,0,1.429-1.429V40h1.429a1.43,1.43,0,0,0,1.429-1.429V31.416a12.131,12.131,0,0,0,2.382-19.752ZM27.143,34.286v1.429H18.571V34.286Zm-2.856,7.143H21.429V40h2.858ZM25,38.571H18.571V37.143h8.571v1.429Zm2.544-8.234a.714.714,0,0,0-.4.642v1.878H23.571V29.582l1.934-1.934a.714.714,0,1,0-1.01-1.01l-1.638,1.638-1.638-1.638a.714.714,0,1,0-1.01,1.01l1.934,1.934v3.276H18.571V30.979a.714.714,0,0,0-.4-.642A10.707,10.707,0,0,1,21.63,10.068,11.232,11.232,0,0,1,22.872,10,10.592,10.592,0,0,1,30,12.729a10.7,10.7,0,0,1-2.457,17.608Z" fill="#253d8f"/>
      <path id="Path_638" data-name="Path 638" d="M22.857,7.143a.714.714,0,0,0,.714-.714V3.571a.714.714,0,1,0-1.429,0V6.429A.714.714,0,0,0,22.857,7.143Z" fill="#253d8f"/>
      <path id="Path_639" data-name="Path 639" d="M12.251,11.118a.714.714,0,1,0,1.01-1.01L11.24,8.087A.714.714,0,1,0,10.23,9.1Z" fill="#253d8f"/>
      <path id="Path_640" data-name="Path 640" d="M8.571,20H5.714a.714.714,0,1,0,0,1.429H8.571a.714.714,0,1,0,0-1.429Z" fill="#253d8f"/>
      <path id="Path_641" data-name="Path 641" d="M12.251,30.311l-2.02,2.02a.714.714,0,1,0,1.01,1.01l2.02-2.021a.714.714,0,1,0-1.01-1.01Z" fill="#253d8f"/>
      <path id="Path_642" data-name="Path 642" d="M34.474,8.087l-2.02,2.02a.714.714,0,1,0,1.01,1.01L35.484,9.1a.714.714,0,1,0-1.01-1.01Z" fill="#253d8f"/>
      <path id="Path_643" data-name="Path 643" d="M33.464,30.311a.714.714,0,1,0-1.01,1.01l2.021,2.02a.714.714,0,1,0,1.01-1.01Z" fill="#253d8f"/>
      <path id="Path_644" data-name="Path 644" d="M40,20H37.143a.714.714,0,0,0,0,1.429H40A.714.714,0,1,0,40,20Z" fill="#253d8f"/>
    </g>
  </g>
</svg>
