<svg xmlns="http://www.w3.org/2000/svg" xmlns:xlink="http://www.w3.org/1999/xlink" width="40" height="40" viewBox="0 0 40 40">
  <defs>
    <clipPath id="clip-path">
      <rect id="Rectangle_462" data-name="Rectangle 462" width="40" height="40" fill="#253d8f" stroke="#707070" stroke-width="1"/>
    </clipPath>
  </defs>
  <g id="icon-core-2" clip-path="url(#clip-path)">
    <path id="handshake_3_" data-name="handshake (3)" d="M42.875,25.168l-10.6-10.6a.59.59,0,0,0-.835,0l-3.092,3.1a.589.589,0,0,0-.163.518,11.443,11.443,0,0,1-2.052.121,20.225,20.225,0,0,0-2.6.128,7.672,7.672,0,0,0-1.929.49,5.414,5.414,0,0,0-.977.523l-.157.108c-1.418-.366-2.348-.629-2.955-.816l.236-.236a.591.591,0,0,0,0-.835l-3.092-3.1a.59.59,0,0,0-.835,0l-10.6,10.6a.59.59,0,0,0,0,.835L6.312,29.1a.59.59,0,0,0,.836,0l.358-.358a19.174,19.174,0,0,0,2.42,3.6.6.6,0,0,0,.054.068l.023.024,0,0c.014.016.028.03.042.045v0l.017.017c.076.082.152.157.226.223l.01.01c.021.022.042.043.063.062l8.953,8.956A2.4,2.4,0,0,0,23.4,40.368a2.4,2.4,0,0,0,3.168-1.885,2.409,2.409,0,0,0,3.294-1.9,2.4,2.4,0,0,0,3.188-2.3,17.978,17.978,0,0,0,5.549-5.539l.352.353a.591.591,0,0,0,.835,0L42.873,26a.59.59,0,0,0,0-.835Zm-38.4.418,9.767-9.767L16.5,18.078l-.51.509L7.23,27.341l-.5.5Zm27.04,9.587a1.253,1.253,0,0,1-1.728,0l-.388-.389v0l-.035-.034L26.05,31.44a.591.591,0,1,0-.835.835l3.148,3.147.006.008a.992.992,0,0,1,.106.132.5.5,0,0,1,.034.05,1.211,1.211,0,0,1,.108.219.619.619,0,0,1,.03.095,1.219,1.219,0,0,1-.309,1.2,1.249,1.249,0,0,1-1.728,0l-.238-.236-3.417-3.422a.591.591,0,0,0-.835.835l2.922,2.922c0,.005.008.011.012.016a1.215,1.215,0,0,1,0,1.724,1.244,1.244,0,0,1-1.725,0l-.1-.1-3.876-3.877a.591.591,0,1,0-.836.835l3.361,3.361,0,0a1.224,1.224,0,0,1,0,1.725,1.254,1.254,0,0,1-1.728,0l-8.962-8.966a.3.3,0,0,0-.026-.025c-.008-.008-.034-.036-.043-.044-.064-.061-.131-.128-.205-.2-.011-.011-.022-.023-.034-.037l-.044-.048,0,0a19.351,19.351,0,0,1-2.46-3.72L9.41,26.835l7.165-7.164c.57.2,1.448.453,2.621.766-.454.326-.9.658-1.294.987-.068.052-.128.1-.183.152-.073.061-.144.124-.215.186l-.106.093c-.1.093-.2.189-.307.289s-.182.185-.275.282l-.107.117-.024.027c-.043.05-.085.1-.109.132-.05.059-.1.114-.124.157-.061.081-.117.158-.15.213s-.071.107-.1.159a1.914,1.914,0,0,0-.1.178,1.747,1.747,0,0,0-.077.167,1.593,1.593,0,0,0-.068.183c-.007.021-.011.041-.017.062l0,.006a1.051,1.051,0,0,0-.029.105,1.692,1.692,0,0,0-.037.458V24.4a.062.062,0,0,0,0,.016c0,.044.008.089.016.135a.039.039,0,0,0,0,.016,1.423,1.423,0,0,0,.041.169l0,.011a1.515,1.515,0,0,0,.063.165l.01.022a1.5,1.5,0,0,0,.1.182l0,0a1.743,1.743,0,0,0,.126.166l.038.044a2,2,0,0,0,.156.156l.047.038q.077.065.167.127c.028.02.057.039.087.058.069.044.143.088.223.13l.029.017a2.842,2.842,0,0,0,.389.16s.009,0,.014.006a2.762,2.762,0,0,0,.28.078l.048.01c.043.009.085.02.127.026l.065.013c.106.016.212.024.334.034a4.408,4.408,0,0,0,1.172-.106c.085-.016.166-.037.263-.063a6.514,6.514,0,0,0,.714-.232,9.754,9.754,0,0,0,1.313-.621l.019-.014A14.32,14.32,0,0,0,23.445,24c.015.434.021.839.023,1.16a.591.591,0,0,0,.173.413l7.872,7.872a1.229,1.229,0,0,1,0,1.726Zm1.206-2.07a2.381,2.381,0,0,0-.371-.49l-7.7-7.7c0-.126,0-.264-.006-.405a11.433,11.433,0,0,0,3.024.4.591.591,0,1,0,0-1.181c-.736.01-3.032-.162-3.811-.906a.591.591,0,0,0-.793-.02,12.478,12.478,0,0,1-1.919,1.323l-.013.005a8.569,8.569,0,0,1-1.152.547l-.02.007a5.488,5.488,0,0,1-.6.193l-.062.017c-.05.012-.1.021-.15.031-.119.025-.236.043-.348.056l-.12.012C18.583,25,18.5,25,18.417,25s-.147,0-.218-.006h-.008a2.122,2.122,0,0,1-.243-.045c-.049-.011-.1-.021-.145-.036a1.755,1.755,0,0,1-.257-.1l-.023-.009c-.019-.01-.034-.019-.05-.029-.047-.026-.093-.051-.132-.077-.023-.015-.039-.03-.059-.044a1.008,1.008,0,0,1-.079-.065c-.016-.015-.03-.03-.043-.045a.528.528,0,0,1-.051-.068c-.008-.012-.018-.025-.024-.037a.3.3,0,0,1-.029-.1v-.02a.587.587,0,0,1,.018-.157l.017-.051a.438.438,0,0,1,.019-.055c.006-.012.01-.024.015-.036a.506.506,0,0,1,.029-.062c.006-.011.012-.024.018-.036a.627.627,0,0,1,.037-.068c.021-.034.042-.068.081-.126s.071-.1.123-.174c.02-.029.043-.054.082-.1s.061-.074.088-.107l.1-.109.192-.2c.034-.034.065-.065.1-.1l.059-.056A29.919,29.919,0,0,1,21.3,20.416c1.35-.918,3.2-.927,4.837-.934h.435c.066,0,.131,0,.2,0,.092,0,.183,0,.272-.005l.189-.006c.088,0,.175-.008.26-.013l.173-.011c.1-.008.195-.018.289-.029l.116-.013c.126-.017.247-.038.365-.063.041-.009.079-.02.118-.03.078-.019.155-.04.229-.064.044-.014.086-.03.129-.046s.068-.023.1-.036l8.73,8.73a17.739,17.739,0,0,1-5.024,5.21Zm6.646-5.259L29.6,18.078l2.257-2.259,9.768,9.767Z" transform="translate(-3.047 -8.424)" fill="#253d8f"/>
  </g>
</svg>
