<svg xmlns="http://www.w3.org/2000/svg" xmlns:xlink="http://www.w3.org/1999/xlink" width="28" height="28" viewBox="0 0 28 28">
  <defs>
    <clipPath id="clip-path">
      <rect id="Rectangle_96" data-name="Rectangle 96" width="28" height="28" transform="translate(1629 62)" fill="#fff" stroke="#707070" stroke-width="1"/>
    </clipPath>
    <linearGradient id="linear-gradient" x1="0.5" y1="1" x2="0.5" gradientUnits="objectBoundingBox">
      <stop offset="0" stop-color="#253d8f"/>
      <stop offset="1" stop-color="#3069bf"/>
    </linearGradient>
  </defs>
  <g id="icon-medical" transform="translate(-1629 -62)" clip-path="url(#clip-path)">
    <g id="mask_1_" data-name="mask (1)" transform="translate(1629 66.977)">
      <g id="Group_164" data-name="Group 164" transform="translate(0 0)">
        <g id="Group_163" data-name="Group 163">
          <path id="Path_170" data-name="Path 170" d="M25.539,8.039a2.465,2.465,0,0,0-2.312,1.618A10.734,10.734,0,0,1,18.309,7.9,8.38,8.38,0,0,0,14,6.4,8.38,8.38,0,0,0,9.691,7.9,10.734,10.734,0,0,1,4.773,9.657,2.461,2.461,0,0,0,0,10.5v1.641H0a.83.83,0,0,0,.067.324h0A29.874,29.874,0,0,0,3.69,18.392a19.167,19.167,0,0,0,4.336,4.122A10.714,10.714,0,0,0,14,24.445a10.714,10.714,0,0,0,5.974-1.932,19.168,19.168,0,0,0,4.336-4.122,29.87,29.87,0,0,0,3.623-5.925A.839.839,0,0,0,28,12.142V10.5a2.464,2.464,0,0,0-2.461-2.461ZM3.281,14.958a28.183,28.183,0,0,1-1.641-2.994V10.5a.82.82,0,1,1,1.641,0Zm19.8,2.345c-2.261,2.883-5.4,5.5-9.078,5.5s-6.818-2.62-9.078-5.5V11.292a12.247,12.247,0,0,0,5.586-1.969A7.043,7.043,0,0,1,14,8.039a7.043,7.043,0,0,1,3.492,1.284,12.247,12.247,0,0,0,5.586,1.969Zm3.281-5.34a28.189,28.189,0,0,1-1.641,2.994V10.5a.82.82,0,1,1,1.641,0ZM15.641,14.6h-.82v-.82a.82.82,0,1,0-1.641,0v.82h-.82a.82.82,0,1,0,0,1.641h.82v.82a.82.82,0,0,0,1.641,0v-.82h.82a.82.82,0,0,0,0-1.641Z" transform="translate(0 -6.398)" fill="url(#linear-gradient)"/>
        </g>
      </g>
    </g>
  </g>
</svg>
