<svg xmlns="http://www.w3.org/2000/svg" xmlns:xlink="http://www.w3.org/1999/xlink" width="40" height="40" viewBox="0 0 40 40">
  <defs>
    <clipPath id="clip-path">
      <rect id="Rectangle_509" data-name="Rectangle 509" width="40" height="40" transform="translate(1335 2186)" fill="#253d8f" stroke="#707070" stroke-width="1"/>
    </clipPath>
  </defs>
  <g id="icon-core-7" transform="translate(-1335 -2186)" clip-path="url(#clip-path)">
    <path id="networking" d="M32,16A8,8,0,1,0,24.758,4.623l-2.142-.791a3.236,3.236,0,0,0,.051-.5,3.362,3.362,0,1,0-.509,1.751l2.139.789a7.854,7.854,0,0,0,.109,4.626l-7.332,3.107A7.961,7.961,0,0,0,7.18,9.856L5.336,5.981a3.316,3.316,0,1,0-2,.686,3.278,3.278,0,0,0,.8-.109l1.842,3.871a7.986,7.986,0,0,0-.427,13.547L4.33,26.169a3.3,3.3,0,0,0-1-.169,3.373,3.373,0,1,0,2.162.817l1.222-2.2a7.933,7.933,0,0,0,8.144-.949l2.624,2.887A7.962,7.962,0,0,0,15.333,32a8.052,8.052,0,0,0,.1,1.2l-3.087.733a3.314,3.314,0,1,0,.321,1.4c0-.037-.01-.071-.011-.108l3.081-.73a8,8,0,1,0,14.642-6.277L34.3,25.671a3.4,3.4,0,1,0-.724-1.12L29.646,27.1a8.044,8.044,0,0,0-2.979-2.367l3.254-9.02A7.971,7.971,0,0,0,32,16ZM19.333,5.333a2,2,0,1,1,2-2A2,2,0,0,1,19.333,5.333Zm-18-2a2,2,0,1,1,2,2A2,2,0,0,1,1.333,3.333Zm2,28a2,2,0,1,1,2-2A2,2,0,0,1,3.333,31.333Zm6,6a2,2,0,1,1,2-2A2,2,0,0,1,9.333,37.333Zm27.333-16a2,2,0,1,1-2,2A2,2,0,0,1,36.667,21.333Zm-8.593-7.957a3.343,3.343,0,0,1,3.259-2.709h1.333a3.343,3.343,0,0,1,3.259,2.709,6.617,6.617,0,0,1-7.852,0ZM32,9.333a2,2,0,1,1,2-2A2,2,0,0,1,32,9.333Zm0-8a6.657,6.657,0,0,1,5.032,11.026,4.722,4.722,0,0,0-2.655-2.7,3.333,3.333,0,1,0-4.755,0,4.722,4.722,0,0,0-2.655,2.7A6.657,6.657,0,0,1,32,1.333Zm-28.667,16A6.667,6.667,0,1,1,15.023,21.7,4.723,4.723,0,0,0,12.365,19a3.334,3.334,0,1,0-4.755,0,4.721,4.721,0,0,0-2.651,2.686A6.631,6.631,0,0,1,3.333,17.333Zm4.653-.667a2,2,0,1,1,2,2A2,2,0,0,1,7.987,16.667ZM6.063,22.7A3.342,3.342,0,0,1,9.32,20h1.333a3.342,3.342,0,0,1,3.261,2.718A6.615,6.615,0,0,1,6.063,22.7ZM19.4,37.367a3.342,3.342,0,0,1,3.257-2.7h1.333a3.342,3.342,0,0,1,3.261,2.718,6.615,6.615,0,0,1-7.851-.018Zm3.924-4.034a2,2,0,1,1,2-2A2,2,0,0,1,23.32,33.333ZM30,32a6.634,6.634,0,0,1-1.644,4.37A4.723,4.723,0,0,0,25.7,33.663a3.334,3.334,0,1,0-4.755,0,4.721,4.721,0,0,0-2.651,2.686A6.663,6.663,0,1,1,30,32Zm-4.587-7.716a7.89,7.89,0,0,0-6.941,1.378l-2.624-2.887a7.942,7.942,0,0,0,1.747-7.941l7.332-3.107a8.043,8.043,0,0,0,3.741,3.537Zm0,0" transform="translate(1335 2186)" fill="#253d8f"/>
  </g>
</svg>
