<svg xmlns="http://www.w3.org/2000/svg" xmlns:xlink="http://www.w3.org/1999/xlink" width="18" height="18" viewBox="0 0 18 18">
  <defs>
    <clipPath id="clip-path">
      <rect id="Rectangle_438" data-name="Rectangle 438" width="18" height="18" fill="#253d8f" stroke="#707070" stroke-width="1"/>
    </clipPath>
  </defs>
  <g id="icon-left" clip-path="url(#clip-path)">
    <g id="reply" transform="translate(0 2.25)">
      <g id="Group_336" data-name="Group 336">
        <path id="Path_571" data-name="Path 571" d="M8.25,5.756V3.125A1.126,1.126,0,0,0,7.125,2a1.112,1.112,0,0,0-.757.3l-.484.448C4.291,4.223,1.624,6.69.259,8.058a1.053,1.053,0,0,0,0,1.384c1.365,1.368,4.031,3.835,5.624,5.309l.484.448a1.112,1.112,0,0,0,.757.3A1.126,1.126,0,0,0,8.25,14.375V11.753c5.4.076,9,1.779,9,3.372a.375.375,0,0,0,.75,0C18,10.072,13.66,5.939,8.25,5.756ZM7.875,11a.375.375,0,0,0-.375.375v3a.376.376,0,0,1-.375.375.363.363,0,0,1-.248-.1L6.393,14.2C4.8,12.73,2.145,10.27.791,8.913a.343.343,0,0,1,0-.326C2.145,7.23,4.8,4.77,6.393,3.3l.484-.448a.363.363,0,0,1,.248-.1.375.375,0,0,1,.375.375v3a.375.375,0,0,0,.375.375,9.239,9.239,0,0,1,9.176,6.851C15.45,11.95,11.985,11,7.875,11Z" transform="translate(0 -2)" fill="#253d8f"/>
      </g>
    </g>
  </g>
</svg>
