<svg xmlns="http://www.w3.org/2000/svg" xmlns:xlink="http://www.w3.org/1999/xlink" width="40" height="40" viewBox="0 0 40 40">
  <defs>
    <clipPath id="clip-path">
      <rect id="Rectangle_460" data-name="Rectangle 460" width="40" height="40" fill="#253d8f" stroke="#707070" stroke-width="1"/>
    </clipPath>
  </defs>
  <g id="icon-core-1" clip-path="url(#clip-path)">
    <g id="tools" transform="translate(2.999 2.529)">
      <path id="Path_602" data-name="Path 602" d="M33.668,26.538l-7.733-7.745a.69.69,0,0,0-.951,0L23.45,20.327l-1.806-1.8L26,14.143c1.821-.1,4.248-.088,4.355-.1.452-.069,1.319-.767,4.252-4.712a.679.679,0,0,0,.13-.383V7.169a.675.675,0,0,0-.337-.583.663.663,0,0,0-.675,0l-3.1,1.84a2.127,2.127,0,0,1-2.419-1.058c-1.073-1.534-.594-2.27.084-2.849a34.232,34.232,0,0,1,3.151-2,.682.682,0,0,0,.337-.556.671.671,0,0,0-.291-.579c-.1-.065-2.431-1.626-6.441-.073-3.1,1.2-3.531,2.772-3.569,2.948L20.82,8.917l-4.386,4.39-3.918-3.93a3.685,3.685,0,0,0,.261-1.342,3.612,3.612,0,0,0-1.066-2.569.571.571,0,0,0-.107-.088L4.967,1.061a.667.667,0,0,0-.84.084L1.371,3.9a.667.667,0,0,0-.084.84l4.328,6.625a.767.767,0,0,0,.088.107,3.636,3.636,0,0,0,3.911.805l3.918,3.93-4.8,4.8-4.6.652h-.05c-.176.042-1.748.472-2.948,3.573-1.534,4.01,0,6.341.077,6.441a.679.679,0,0,0,.571.3.663.663,0,0,0,.552-.334,34.529,34.529,0,0,1,2-3.152c.579-.679,1.327-1.15,2.852-.088a2.116,2.116,0,0,1,1.058,2.419l-1.84,3.1a.667.667,0,0,0,.575,1.012H8.755a.648.648,0,0,0,.383-.134c4.026-2.975,4.666-3.834,4.72-4.267,0-.092,0-2.519.1-4.336l4.789-4.766,1.825,1.8-1.534,1.534a.675.675,0,0,0,0,.951l7.744,7.741a4.639,4.639,0,0,0,6.556,0l.349-.349a4.628,4.628,0,0,0,0-6.556ZM21.928,9.711a.686.686,0,0,0,.188-.383l.679-4.77c.042-.107.491-1.108,2.737-1.978a7.219,7.219,0,0,1,4.037-.506A20.768,20.768,0,0,0,27.419,3.5c-1.844,1.58-1.185,3.393-.311,4.639a3.5,3.5,0,0,0,4.056,1.534c.031,0,2.235-1.315,2.235-1.315v.383a35.712,35.712,0,0,1-3.286,3.976c-.882-.046-3.335.073-4.436.134a.667.667,0,0,0-.441.2L20.7,17.567l-1.15-1.15,4.378-4.4a.671.671,0,1,0-.947-.943l-4.39,4.386-1.2-1.208ZM8.257,11.194a2.262,2.262,0,0,1-1.568-.621L2.705,4.466,4.691,2.48l6.107,4a2.3,2.3,0,0,1-.046,3.19l-.878.878a2.273,2.273,0,0,1-1.618.667ZM12.834,25.43a.652.652,0,0,0-.2.437c-.061,1.1-.18,3.554-.13,4.436a36.529,36.529,0,0,1-3.98,3.29H8.145l1.327-2.235A3.463,3.463,0,0,0,7.938,27.3c-1.246-.874-3.067-1.534-4.643.311a20.971,20.971,0,0,0-1.43,2.151,7.193,7.193,0,0,1,.51-4.037c.874-2.266,1.879-2.684,1.978-2.741l4.789-.679a.663.663,0,0,0,.383-.188l4.953-4.961,1.208,1.2-4.842,4.846a.67.67,0,1,0,.947.947l4.842-4.842,1.15,1.15ZM10.756,11.536l.069-.061L11.7,10.6l.061-.069L22.5,21.266l-1,1ZM32.721,32.163l-.349.353a3.3,3.3,0,0,1-4.662,0l-7.265-7.285L21.978,23.7l1.955-1.952,1.534-1.534L32.751,27.5a3.29,3.29,0,0,1-.031,4.666Z" transform="translate(-0.454 -0.624)" fill="#253d8f"/>
      <path id="Path_603" data-name="Path 603" d="M53.133,51.47a.673.673,0,0,0-.96,0,.68.68,0,0,0,0,.96L58,58.262a.682.682,0,0,0,.964-.964Z" transform="translate(-28.196 -28.377)" fill="#253d8f"/>
    </g>
  </g>
</svg>
