<svg xmlns="http://www.w3.org/2000/svg" xmlns:xlink="http://www.w3.org/1999/xlink" width="26" height="26" viewBox="0 0 26 26">
  <defs>
    <clipPath id="clip-path">
      <rect id="Rectangle_465" data-name="Rectangle 465" width="26" height="26" fill="#253d8f" stroke="#707070" stroke-width="1"/>
    </clipPath>
  </defs>
  <g id="icon-2" clip-path="url(#clip-path)">
    <g id="XMLID_996_" transform="translate(0 1.016)">
      <g id="XMLID_41_">
        <path id="XMLID_4218_" d="M46.145,19.6a.508.508,0,1,0,.718-.718l-.007-.007a.508.508,0,0,0-.718.718Z" transform="translate(-30.256 -13.338)" fill="#253d8f"/>
        <path id="XMLID_4221_" d="M24.081,14.039l1.77-1.77a.508.508,0,0,0-.359-.867H21.823A11.071,11.071,0,1,0,3.242,21.867a11.15,11.15,0,0,0,2.035,1.61l-1.53,2.7a.508.508,0,0,0,.442.758H6.8a.508.508,0,0,0,.442-.258l1.082-1.911a11.2,11.2,0,0,0,5.484,0l1.082,1.911a.508.508,0,0,0,.442.258h2.615a.508.508,0,0,0,.442-.758l-1.53-2.7a11.152,11.152,0,0,0,2.035-1.61,11.033,11.033,0,0,0,2.925-5.191h3.669a.508.508,0,0,0,.359-.867Zm-.929-.508H19.609l1.113-1.113h3.544ZM6.509,25.922H5.06l1.105-1.953a10.918,10.918,0,0,0,1.167.5Zm10.572,0H15.632l-.824-1.456a10.918,10.918,0,0,0,1.167-.5Zm1.1-4.773a10.1,10.1,0,0,1-2.227,1.684l-.03.015-.018.011a9.924,9.924,0,0,1-1.947.815.5.5,0,0,0-.079.023,10.153,10.153,0,0,1-5.62,0,.5.5,0,0,0-.079-.023,9.923,9.923,0,0,1-1.947-.815l-.018-.011-.03-.015a10.1,10.1,0,0,1-2.227-1.684A10.055,10.055,0,1,1,20.775,11.4h-.263a.508.508,0,0,0-.359.149L18.805,12.9a7.824,7.824,0,0,0-.885-2.637.508.508,0,0,0-.889.491,6.743,6.743,0,0,1,.82,2.779H15.612a4.572,4.572,0,1,0,0,1.016h2.237a6.8,6.8,0,1,1-3.492-6.468.508.508,0,0,0,.491-.889,7.877,7.877,0,0,0-4.823-.9,7.82,7.82,0,1,0,8.781,8.893l1.346,1.346a.508.508,0,0,0,.359.149h.263A10.022,10.022,0,0,1,18.18,21.149Zm-5.451-8.067a.508.508,0,0,0-.694-.186l-1.219.7a.508.508,0,0,0,0,.88l1.219.7a.507.507,0,0,0,.722-.636h1.832a3.527,3.527,0,0,1-1,2.006h0a3.554,3.554,0,1,1,1.005-3.021H12.757A.506.506,0,0,0,12.729,13.082Zm7.993,2.579-1.113-1.113h3.544l1.113,1.113Z" transform="translate(0 -2.969)" fill="#253d8f"/>
      </g>
    </g>
  </g>
</svg>
