<svg xmlns="http://www.w3.org/2000/svg" xmlns:xlink="http://www.w3.org/1999/xlink" width="24" height="24" viewBox="0 0 24 24">
  <defs>
    <clipPath id="clip-path">
      <rect id="Rectangle_164" data-name="Rectangle 164" width="24" height="24" transform="translate(255 498.75)" fill="#253d8f" stroke="#707070" stroke-width="1"/>
    </clipPath>
  </defs>
  <g id="icon-tab-3" transform="translate(-255 -498.75)" clip-path="url(#clip-path)">
    <g id="test" transform="translate(255 498.75)">
      <path id="Path_265" data-name="Path 265" d="M8.227,6.8H4.477a.7.7,0,0,0,0,1.406h3.75a.7.7,0,0,0,0-1.406Z" fill="#253d8f"/>
      <path id="Path_266" data-name="Path 266" d="M8.227,10.547H4.477a.7.7,0,0,0,0,1.406h3.75a.7.7,0,0,0,0-1.406Z" fill="#253d8f"/>
      <path id="Path_267" data-name="Path 267" d="M8.227,14.3H4.477a.7.7,0,0,0,0,1.406h3.75a.7.7,0,0,0,0-1.406Z" fill="#253d8f"/>
      <path id="Path_268" data-name="Path 268" d="M18.3,12.887V6.468A3.5,3.5,0,0,0,17.3,4.006l-2.853-2.95,0,0A3.538,3.538,0,0,0,11.934,0H2.883A2.112,2.112,0,0,0,.773,2.109V20.344a2.112,2.112,0,0,0,2.109,2.109H13.75A5.589,5.589,0,1,0,18.3,12.887ZM2.18,20.344V2.109a.7.7,0,0,1,.7-.7h9.051a2.124,2.124,0,0,1,1.5.629l2.852,2.95,0,0A2.1,2.1,0,0,1,16.9,6.468v6.42a5.576,5.576,0,0,0-4.217,8.159h-9.8a.7.7,0,0,1-.7-.7ZM17.6,22.594a4.172,4.172,0,1,1,4.219-4.172A4.177,4.177,0,0,1,17.6,22.594Z" fill="#253d8f"/>
      <path id="Path_269" data-name="Path 269" d="M19.224,16.757a.7.7,0,0,0-.99.09l-1.187,1.424-.269-.538a.7.7,0,0,0-1.258.629l.75,1.5a.7.7,0,0,0,.548.384.716.716,0,0,0,.081,0,.7.7,0,0,0,.54-.253l1.875-2.25A.7.7,0,0,0,19.224,16.757Z" fill="#253d8f"/>
      <path id="Path_270" data-name="Path 270" d="M11.977,8.2h.75a.7.7,0,0,0,0-1.406h-.75a.7.7,0,0,0,0,1.406Z" fill="#253d8f"/>
      <path id="Path_271" data-name="Path 271" d="M13.43,11.25a.7.7,0,0,0-.7-.7h-.75a.7.7,0,0,0,0,1.406h.75A.7.7,0,0,0,13.43,11.25Z" fill="#253d8f"/>
    </g>
  </g>
</svg>
