<svg xmlns="http://www.w3.org/2000/svg" xmlns:xlink="http://www.w3.org/1999/xlink" width="20" height="20" viewBox="0 0 20 20">
  <defs>
    <clipPath id="clip-path">
      <rect id="Rectangle_179" data-name="Rectangle 179" width="20" height="20" transform="translate(375 33)" fill="#253d8f"/>
    </clipPath>
  </defs>
  <g id="icon-serach" transform="translate(-375 -33)" clip-path="url(#clip-path)">
    <g id="loupe" transform="translate(375 33)">
      <g id="Group_213" data-name="Group 213">
        <g id="Group_212" data-name="Group 212">
          <path id="Path_290" data-name="Path 290" d="M8.808,0a8.808,8.808,0,1,0,8.808,8.808A8.818,8.818,0,0,0,8.808,0Zm0,15.989a7.182,7.182,0,1,1,7.182-7.182A7.19,7.19,0,0,1,8.808,15.989Z" fill="#253d8f"/>
        </g>
      </g>
      <g id="Group_215" data-name="Group 215" transform="translate(13.713 13.713)">
        <g id="Group_214" data-name="Group 214">
          <path id="Path_291" data-name="Path 291" d="M26.618,25.469l-4.661-4.661a.813.813,0,1,0-1.15,1.15l4.661,4.661a.813.813,0,0,0,1.15-1.15Z" transform="translate(-20.569 -20.569)" fill="#253d8f"/>
        </g>
      </g>
    </g>
  </g>
</svg>
