<svg xmlns="http://www.w3.org/2000/svg" xmlns:xlink="http://www.w3.org/1999/xlink" width="24" height="24" viewBox="0 0 24 24">
  <defs>
    <clipPath id="clip-path">
      <rect id="Rectangle_171" data-name="Rectangle 171" width="24" height="24" transform="translate(255 707)" fill="#253d8f" stroke="#707070" stroke-width="1"/>
    </clipPath>
  </defs>
  <g id="icon-tab-6" transform="translate(-255 -707)" clip-path="url(#clip-path)">
    <g id="quality" transform="translate(254.985 707)">
      <path id="Path_281" data-name="Path 281" d="M14.693,9.771l-3.606,3.406L9.357,11.4a.5.5,0,1,0-.715.7l2.076,2.131a.508.508,0,0,0,.705.015L15.389,10.5a.5.5,0,0,0,.02-.705A.51.51,0,0,0,14.693,9.771Zm0,0" fill="#253d8f"/>
      <path id="Path_282" data-name="Path 282" d="M12.017,4.529A7.472,7.472,0,1,0,19.49,12,7.479,7.479,0,0,0,12.017,4.529Zm0,13.944A6.472,6.472,0,1,1,18.49,12,6.479,6.479,0,0,1,12.017,18.473Zm0,0" fill="#253d8f"/>
      <path id="Path_283" data-name="Path 283" d="M22.3,9.25l.165-2.966a.5.5,0,0,0-.275-.475L19.55,4.474,18.214,1.833a.508.508,0,0,0-.475-.275l-2.971.16L12.292.082a.5.5,0,0,0-.55,0L9.267,1.718,6.3,1.553a.5.5,0,0,0-.475.275L4.49,4.469,1.849,5.8a.507.507,0,0,0-.275.475l.165,2.966L.1,11.721a.5.5,0,0,0,0,.55l1.631,2.481-.165,2.966a.5.5,0,0,0,.275.475l2.641,1.335,1.335,2.641a.507.507,0,0,0,.475.275l2.966-.165,2.476,1.635a.487.487,0,0,0,.55,0l2.476-1.635,2.966.165a.5.5,0,0,0,.475-.275l1.335-2.641,2.641-1.335a.507.507,0,0,0,.275-.475l-.165-2.966,1.635-2.476a.5.5,0,0,0,0-.55Zm-.93,5.092a.47.47,0,0,0-.08.305l.155,2.806-2.5,1.26a.494.494,0,0,0-.22.22l-1.261,2.5-2.806-.155a.546.546,0,0,0-.305.08L12.017,22.9,9.677,21.354a.5.5,0,0,0-.275-.085H9.377l-2.806.155-1.26-2.5a.493.493,0,0,0-.22-.22l-2.5-1.255.155-2.806a.547.547,0,0,0-.08-.305L1.119,12,2.664,9.66a.468.468,0,0,0,.08-.3L2.589,6.549l2.5-1.26a.493.493,0,0,0,.22-.22l1.26-2.5,2.806.155a.549.549,0,0,0,.305-.08L12.017,1.1l2.341,1.545a.469.469,0,0,0,.305.08l2.806-.155,1.261,2.5a.493.493,0,0,0,.22.22l2.5,1.26L21.29,9.355a.548.548,0,0,0,.08.3L22.916,12Zm0,0" fill="#253d8f"/>
    </g>
  </g>
</svg>
