<svg xmlns="http://www.w3.org/2000/svg" xmlns:xlink="http://www.w3.org/1999/xlink" width="40" height="40" viewBox="0 0 40 40">
  <defs>
    <clipPath id="clip-path">
      <rect id="Rectangle_510" data-name="Rectangle 510" width="40" height="40" transform="translate(1335 2388)" fill="#253d8f" stroke="#707070" stroke-width="1"/>
    </clipPath>
  </defs>
  <g id="icon-core-8" transform="translate(-1335 -2388)" clip-path="url(#clip-path)">
    <g id="badge_2_" data-name="badge (2)" transform="translate(1335 2388)">
      <g id="Group_385" data-name="Group 385">
        <g id="Group_384" data-name="Group 384">
          <path id="Path_651" data-name="Path 651" d="M25.313,13.553l-3.18-.462L20.71,10.208a.79.79,0,0,0-1.417,0L17.87,13.091l-3.181.462A.79.79,0,0,0,14.25,14.9l2.3,2.244-.544,3.168a.786.786,0,0,0,1.147.83L20,19.649l2.845,1.493a.79.79,0,0,0,1.149-.83l-.544-3.168,2.3-2.244a.79.79,0,0,0-.439-1.348ZM22.049,16.3a.79.79,0,0,0-.227.7l.342,2-1.8-.944a.79.79,0,0,0-.736.006l-1.8.944.343-2a.79.79,0,0,0-.227-.7L16.5,14.885l2.007-.292a.79.79,0,0,0,.6-.432l.9-1.819.9,1.819a.79.79,0,0,0,.6.432l2.008.286Z" fill="#253d8f"/>
          <path id="Path_652" data-name="Path 652" d="M20,5.392A10.284,10.284,0,1,0,30.284,15.677,10.284,10.284,0,0,0,20,5.392ZM20,24.38a8.7,8.7,0,1,1,8.7-8.7A8.7,8.7,0,0,1,20,24.38Z" fill="#253d8f"/>
          <path id="Path_653" data-name="Path 653" d="M34.474,17.808,33,18.367a3.975,3.975,0,0,1,.418,1.668c-.111.341-.781.777-1.372,1.163a7.433,7.433,0,0,0-2.05,1.733,7.583,7.583,0,0,0-1.03,2.507,3.964,3.964,0,0,1-.672,1.645,3.893,3.893,0,0,1-1.756.127,7.516,7.516,0,0,0-2.717.209,7.321,7.321,0,0,0-2.254,1.4c-.554.448-1.183.955-1.561.955s-1.007-.508-1.562-.957a7.305,7.305,0,0,0-2.253-1.4,5.627,5.627,0,0,0-1.767-.238c-.326,0-.645.015-.952.03a3.951,3.951,0,0,1-1.751-.127,4.056,4.056,0,0,1-.673-1.646,7.5,7.5,0,0,0-1.029-2.507A7.375,7.375,0,0,0,7.963,21.2c-.591-.385-1.261-.822-1.372-1.163a3.988,3.988,0,0,1,.419-1.668,7.667,7.667,0,0,0,.649-2.689,7.669,7.669,0,0,0-.65-2.689,4,4,0,0,1-.419-1.668c.111-.341.781-.777,1.372-1.163a7.458,7.458,0,0,0,2.05-1.732,7.556,7.556,0,0,0,1.03-2.507,3.964,3.964,0,0,1,.672-1.645,3.88,3.88,0,0,1,1.752-.127,7.551,7.551,0,0,0,2.722-.209,7.332,7.332,0,0,0,2.254-1.4c.55-.45,1.178-.956,1.557-.956s1.007.507,1.561.956a7.32,7.32,0,0,0,2.254,1.4,7.62,7.62,0,0,0,2.722.209,3.977,3.977,0,0,1,1.751.127,4.041,4.041,0,0,1,.668,1.645,7.5,7.5,0,0,0,1.029,2.507,7.36,7.36,0,0,0,2.051,1.733c.591.385,1.261.822,1.372,1.163a3.982,3.982,0,0,1-.419,1.668,7.672,7.672,0,0,0-.65,2.689,7.674,7.674,0,0,0,.65,2.689l.739-.279.739-.279a6.3,6.3,0,0,1-.548-2.13,6.258,6.258,0,0,1,.547-2.13,4.263,4.263,0,0,0,.443-2.715,4.4,4.4,0,0,0-2.013-2,6.242,6.242,0,0,1-1.636-1.339A6.318,6.318,0,0,1,30.481,5.5a4.321,4.321,0,0,0-1.267-2.508,4.274,4.274,0,0,0-2.755-.429A6.323,6.323,0,0,1,24.3,2.432a6.071,6.071,0,0,1-1.748-1.125A4.43,4.43,0,0,0,20,0a4.43,4.43,0,0,0-2.555,1.308A6.066,6.066,0,0,1,15.7,2.432a6.244,6.244,0,0,1-2.156.134,4.306,4.306,0,0,0-2.756.429A4.358,4.358,0,0,0,9.517,5.5a6.256,6.256,0,0,1-.782,1.992A6.1,6.1,0,0,1,7.1,8.834a4.4,4.4,0,0,0-2.013,2,4.27,4.27,0,0,0,.443,2.716,6.319,6.319,0,0,1,.547,2.129,6.268,6.268,0,0,1-.547,2.13,4.264,4.264,0,0,0-.443,2.715,4.4,4.4,0,0,0,2.013,2,6.223,6.223,0,0,1,1.635,1.339,6.339,6.339,0,0,1,.782,1.992,8.087,8.087,0,0,0,.6,1.717l-3.2,8.187a.79.79,0,0,0,.83,1.072l4.478-.536,2.925,3.43a.79.79,0,0,0,1.338-.229l3.192-8.166a1.953,1.953,0,0,0,.642,0l3.191,8.166a.79.79,0,0,0,1.337.225l2.925-3.43,4.478.536a.79.79,0,0,0,.831-1.068l-3.2-8.189a8.142,8.142,0,0,0,.6-1.717,6.214,6.214,0,0,1,.782-1.992A6.116,6.116,0,0,1,32.9,22.52a4.4,4.4,0,0,0,2.013-2A4.283,4.283,0,0,0,34.474,17.808ZM15.493,37.693l-2.342-2.748a.79.79,0,0,0-.7-.271L8.869,35.1l2.519-6.443a6.337,6.337,0,0,0,2.151.128c.29-.014.589-.028.878-.028a4.131,4.131,0,0,1,1.279.161,6.064,6.064,0,0,1,1.748,1.125c.263.212.527.425.8.615ZM31.131,35.1l-3.585-.429a.79.79,0,0,0-.7.272l-2.343,2.748-2.751-7.032c.27-.191.536-.4.8-.615A6.066,6.066,0,0,1,24.3,28.924a6.244,6.244,0,0,1,2.157-.134,6.344,6.344,0,0,0,2.151-.128Z" fill="#253d8f"/>
        </g>
      </g>
    </g>
  </g>
</svg>
