<svg xmlns="http://www.w3.org/2000/svg" xmlns:xlink="http://www.w3.org/1999/xlink" width="40" height="40" viewBox="0 0 40 40">
  <defs>
    <clipPath id="clip-path">
      <rect id="Rectangle_508" data-name="Rectangle 508" width="40" height="40" transform="translate(545 2387)" fill="#253d8f" stroke="#707070" stroke-width="1"/>
    </clipPath>
  </defs>
  <g id="icon-core-4" transform="translate(-545 -2387)" clip-path="url(#clip-path)">
    <path id="package" d="M37.647,9.306,20.345.078a.671.671,0,0,0-.625,0L2.416,9.247a.694.694,0,0,0-.355.587L2,29.751a.667.667,0,0,0,.347.587L19.894,39.92a.676.676,0,0,0,.65-.006l17.12-9.755a.667.667,0,0,0,.336-.58V9.895a.761.761,0,0,0-.353-.589ZM20.213,18.939l-6.853-3.919L29.35,6.393l6.606,3.523Zm7.725-13.3L11.672,14.418a.667.667,0,0,0-.35.587v4.387L9.183,18.211V13.49L26,4.606ZM20.029,1.421l4.551,2.427L8.545,12.319,4.123,9.851ZM3.391,10.973l4.458,2.505V18.6a.668.668,0,0,0,.345.584L11.667,21.1a.673.673,0,0,0,.989-.584V16.153l6.892,3.941V38.211L3.335,29.358ZM36.667,29.191l-15.787,9V20.093l15.787-9.049Z" transform="translate(545 2387)" fill="#253d8f"/>
  </g>
</svg>
