<svg xmlns="http://www.w3.org/2000/svg" xmlns:xlink="http://www.w3.org/1999/xlink" width="69" height="70" viewBox="0 0 69 70">
  <defs>
    <clipPath id="clip-path">
      <rect id="Rectangle_87" data-name="Rectangle 87" width="69" height="70" transform="translate(0 0)" fill="#fff" stroke="#707070" stroke-width="1"/>
    </clipPath>
  </defs>
  <g id="img-360" transform="translate(0 0)" clip-path="url(#clip-path)">
    <g id="_360-degrees" data-name="360-degrees" transform="translate(0.226 16.722)">
      <g id="Group_125" data-name="Group 125" transform="translate(0 0)">
        <g id="Group_124" data-name="Group 124">
          <path id="Path_160" data-name="Path 160" d="M71.045,28.549a3.9,3.9,0,1,0-3.9-3.9A3.9,3.9,0,0,0,71.045,28.549Zm0-5.066a1.16,1.16,0,1,1-1.16,1.16A1.16,1.16,0,0,1,71.045,23.484Z" transform="translate(-16.071 -20.741)" fill="#fff"/>
          <path id="Path_161" data-name="Path 161" d="M58.859,33.117a1.372,1.372,0,1,0-1.232,2.452l.04.019c5.183,2.5,8.049,5.64,8.049,8.841,0,3.325-3.213,6.677-8.814,9.2-6.032,2.713-14.084,4.207-22.671,4.207s-16.637-1.494-22.671-4.207c-5.6-2.518-8.814-5.87-8.814-9.2,0-3.2,2.858-6.335,8.049-8.841A1.372,1.372,0,0,0,9.644,33.1l-.04.019C3.412,36.1,0,40.118,0,44.426c0,9.055,15.035,16.146,34.228,16.146s34.228-7.093,34.228-16.146C68.461,40.118,65.051,36.1,58.859,33.117Z" transform="translate(0 -23.669)" fill="#fff"/>
          <path id="Path_162" data-name="Path 162" d="M19.085,47.778A6.6,6.6,0,0,0,23.73,49.35a6.616,6.616,0,0,0,4.53-1.524A5.022,5.022,0,0,0,30,43.862a4.3,4.3,0,0,0-.87-2.767,3.868,3.868,0,0,0-2.439-1.372,3.8,3.8,0,0,0,1.969-1.288,3.46,3.46,0,0,0,.675-2.159,3.808,3.808,0,0,0-1.472-3.156,6.291,6.291,0,0,0-4.037-1.149,6.9,6.9,0,0,0-4.473,1.3,4.556,4.556,0,0,0-1.643,3.642h4.055a1.686,1.686,0,0,1,1.857-1.8,1.89,1.89,0,0,1,1.334.482,1.622,1.622,0,0,1,.521,1.248,1.783,1.783,0,0,1-.619,1.466,2.747,2.747,0,0,1-1.776.5h-.235v2.692h.515a2.751,2.751,0,0,1,1.884.544,2.18,2.18,0,0,1,.6,1.7,2.1,2.1,0,0,1-.561,1.575,2.226,2.226,0,0,1-1.614.544,1.959,1.959,0,0,1-1.524-.567,2.426,2.426,0,0,1-.52-1.678v-.274h-4.25v.16A5.511,5.511,0,0,0,19.085,47.778Z" transform="translate(-4.159 -23.43)" fill="#fff"/>
          <path id="Path_163" data-name="Path 163" d="M43.1,49.454a6.5,6.5,0,0,0,4.678-1.666,5.839,5.839,0,0,0,1.747-4.431,5.341,5.341,0,0,0-1.4-3.8,4.622,4.622,0,0,0-3.527-1.5,6.433,6.433,0,0,0-.915.063,5.342,5.342,0,0,0-.837.189l3.918-5.91H42.088l-2.349,3.634a27.422,27.422,0,0,0-2.422,4.4,8.211,8.211,0,0,0-.578,2.944,5.858,5.858,0,0,0,1.718,4.433A6.387,6.387,0,0,0,43.1,49.454Zm-1.9-7.774a2.818,2.818,0,0,1,3.7,0,2.572,2.572,0,0,1,.681,1.884,2.514,2.514,0,0,1-.681,1.867,2.846,2.846,0,0,1-3.7.006,2.536,2.536,0,0,1-.681-1.867A2.616,2.616,0,0,1,41.2,41.679Z" transform="translate(-8.794 -23.533)" fill="#fff"/>
          <path id="Path_164" data-name="Path 164" d="M62.311,49.35a5.458,5.458,0,0,0,4.645-2.287,10.313,10.313,0,0,0,1.689-6.25,11.04,11.04,0,0,0-1.666-6.523,5.849,5.849,0,0,0-9.323,0,10.57,10.57,0,0,0-1.7,6.369,10.6,10.6,0,0,0,1.7,6.386A5.441,5.441,0,0,0,62.311,49.35ZM60.684,36.619a1.659,1.659,0,0,1,3.224.029,11.6,11.6,0,0,1,.509,4,11.545,11.545,0,0,1-.509,4.009,1.655,1.655,0,0,1-3.218.006,11.573,11.573,0,0,1-.509-4.015,11.622,11.622,0,0,1,.5-4.021Z" transform="translate(-13.394 -23.43)" fill="#fff"/>
        </g>
      </g>
    </g>
  </g>
</svg>
