<svg xmlns="http://www.w3.org/2000/svg" xmlns:xlink="http://www.w3.org/1999/xlink" width="456" height="85" viewBox="0 0 456 85">
  <defs>
    <clipPath id="clip-path">
      <rect id="Rectangle_489" data-name="Rectangle 489" width="456" height="85" transform="translate(500 3466)" fill="#fff" stroke="#707070" stroke-width="1"/>
    </clipPath>
  </defs>
  <g id="line-main-2" transform="translate(-500 -3466)" clip-path="url(#clip-path)">
    <g id="Path_632" data-name="Path 632" transform="translate(500.349 3455.702)" fill="none" stroke-linecap="round">
      <path d="M453.151,2.8a57.814,57.814,0,0,1-1.9,8.256,72.754,72.754,0,0,1-8.227,18.164,56.3,56.3,0,0,1-18.328,18.164c-8.213,4.954-18.738,8.256-32.207,8.256H59.623a49.3,49.3,0,0,0-26.169,7.369A64.983,64.983,0,0,0,15.969,79.219,91.211,91.211,0,0,0,6.193,95.43,70.447,70.447,0,0,0,3.151,102.8" stroke="none"/>
      <path d="M 3.1517333984375 105.2990036010742 C 3.4150390625 105.2990036010742 3.673736572265625 105.257080078125 3.9190673828125 105.1776885986328 C 4.16436767578125 105.0982971191406 4.39630126953125 104.9814453125 4.6060791015625 104.8316040039062 C 4.81585693359375 104.6817626953125 5.003448486328125 104.4989318847656 5.16009521484375 104.2875747680664 C 5.31671142578125 104.0762176513672 5.4423828125 103.8363342285156 5.528350830078125 103.572395324707 C 5.53057861328125 103.5655670166016 5.592132568359375 103.378791809082 5.71478271484375 103.0356903076172 C 5.83740234375 102.6925964355469 6.021148681640625 102.1931762695312 6.26776123046875 101.5610656738281 C 6.514373779296875 100.9289474487305 6.8238525390625 100.1641387939453 7.197998046875 99.29025268554688 C 7.572113037109375 98.41637420654297 8.010894775390625 97.43342590332031 8.51611328125 96.36504364013672 C 8.9801025390625 95.38389587402344 9.525543212890625 94.27819061279297 10.15325927734375 93.07926940917969 C 10.781005859375 91.88035583496094 11.49099731445312 90.58822631835938 12.2840576171875 89.23423767089844 C 13.07708740234375 87.8802490234375 13.95318603515625 86.46440124511719 14.91311645507812 85.01803588867188 C 15.873046875 83.57167053222656 16.91683959960938 82.09479522705078 18.04522705078125 80.61875152587891 C 20.89605712890625 76.88958740234375 23.90847778320312 73.62001037597656 27.076416015625 70.81329345703125 C 30.24432373046875 68.00657653808594 33.5677490234375 65.6627197265625 37.0406494140625 63.78500747680664 C 40.5135498046875 61.90729522705078 44.13589477539062 60.49573135375977 47.901611328125 59.55359649658203 C 51.66729736328125 58.61145782470703 55.57638549804688 58.13875198364258 59.62277221679688 58.13875198364258 L 392.4871826171875 58.13875198364258 C 395.6746826171875 58.13875198364258 398.7697143554688 57.95758056640625 401.7673950195312 57.59650421142578 C 404.7650451660156 57.23542404174805 407.6653442382812 56.69443511962891 410.46337890625 55.97479248046875 C 413.2614135742188 55.25514984130859 415.9571838378906 54.35685348510742 418.5458068847656 53.28116226196289 C 421.1344299316406 52.20547103881836 423.6159057617188 50.95238494873047 425.9853515625 49.52316284179688 C 427.8849792480469 48.37732696533203 429.7122497558594 47.1192626953125 431.4643859863281 45.75174713134766 C 433.2165222167969 44.38422775268555 434.8934936523438 42.90725708007812 436.4925537109375 41.32360458374023 C 438.0916137695312 39.73995208740234 439.6127624511719 38.04961395263672 441.0531311035156 36.25536346435547 C 442.4935302734375 34.46110916137695 443.8531799316406 32.56294250488281 445.1293029785156 30.56363487243652 C 446.257080078125 28.79670715332031 447.2659912109375 27.03065872192383 448.1667785644531 25.3024730682373 C 449.0675659179688 23.57428741455078 449.8602294921875 21.88396072387695 450.5554504394531 20.26848030090332 C 451.2507019042969 18.65299797058105 451.8485717773438 17.11236000061035 452.3597717285156 15.68354797363281 C 452.8709716796875 14.25473690032959 453.2955017089844 12.93775177001953 453.6441040039062 11.76957511901855 C 454.0238647460938 10.49707508087158 454.3367614746094 9.3289794921875 454.5927734375 8.290382385253906 C 454.8488159179688 7.251784801483154 455.0479431152344 6.342685699462891 455.2002258300781 5.588178157806396 C 455.3524780273438 4.833670616149902 455.4578247070312 4.233755111694336 455.5262756347656 3.813525676727295 C 455.5947265625 3.393295764923096 455.6262817382812 3.152751684188843 455.6308898925781 3.116986989974976 C 455.6748657226562 2.774619340896606 455.6473693847656 2.439542055130005 455.5600280761719 2.126759052276611 C 455.47265625 1.813975811004639 455.325439453125 1.523486852645874 455.1299133300781 1.2702956199646 C 454.9343872070312 1.017104387283325 454.6905517578125 0.8012109994888306 454.4100341796875 0.6376190185546875 C 454.1294860839844 0.474027156829834 453.812255859375 0.362736701965332 453.4698791503906 0.3187515735626221 C 453.44287109375 0.3152790069580078 453.4158630371094 0.312251091003418 453.388916015625 0.3096623420715332 C 453.3619689941406 0.3070738315582275 453.3350830078125 0.304924488067627 453.3082580566406 0.3032093048095703 C 453.2814025878906 0.3014941215515137 453.254638671875 0.3002128601074219 453.2279357910156 0.2993602752685547 C 453.2012329101562 0.2985079288482666 453.1745910644531 0.2980842590332031 453.1480712890625 0.2980842590332031 C 452.8385314941406 0.2980842590332031 452.5392150878906 0.355527400970459 452.2617797851562 0.4613804817199707 C 451.984375 0.5672333240509033 451.7288513183594 0.7214961051940918 451.5068969726562 0.915135383605957 C 451.2849731445312 1.108774781227112 451.0966186523438 1.341790795326233 450.9535827636719 1.60515022277832 C 450.8105163574219 1.868509650230408 450.7127380371094 2.162212371826172 450.6719665527344 2.477225542068481 L 450.6719360351562 2.477222204208374 C 450.6708984375 2.485266208648682 450.6430969238281 2.693806648254395 450.5795593261719 3.076496124267578 C 450.5160217285156 3.459185361862183 450.4167785644531 4.016023635864258 450.2728576660156 4.720663547515869 C 450.1289367675781 5.42530345916748 449.9403381347656 6.277744293212891 449.6980895996094 7.251639366149902 C 449.4558410644531 8.225534439086914 449.1599426269531 9.320883750915527 448.8014526367188 10.51133918762207 C 448.4727478027344 11.60297203063965 448.0729370117188 12.83312702178955 447.5922241210938 14.1668758392334 C 447.1115112304688 15.50062561035156 446.5499267578125 16.93796920776367 445.8976745605469 18.44397926330566 C 445.2454223632812 19.94998931884766 444.5025024414062 21.52466773986816 443.6591186523438 23.13308715820312 C 442.8157653808594 24.74150466918945 441.8719482421875 26.38366317749023 440.81787109375 28.02463340759277 C 438.1418151855469 32.19076538085938 435.1184387207031 35.84346389770508 431.7548522949219 38.97906494140625 C 428.3912963867188 42.11466217041016 424.6874694824219 44.73316192626953 420.6505126953125 46.83089065551758 C 416.613525390625 48.92861938476562 412.243408203125 50.50558471679688 407.5471496582031 51.5581169128418 C 402.8509216308594 52.61064910888672 397.8285522460938 53.13875198364258 392.4871826171875 53.13875198364258 L 59.62277221679688 53.13875198364258 C 57.161376953125 53.13875198364258 54.73757934570312 53.30143737792969 52.35540771484375 53.62568283081055 C 49.9732666015625 53.94992828369141 47.63275146484375 54.43572998046875 45.337890625 55.08195495605469 C 43.04302978515625 55.72817993164062 40.7938232421875 56.53482818603516 38.59423828125 57.50077056884766 C 36.3946533203125 58.46670913696289 34.2447509765625 59.59194183349609 32.14846801757812 60.87533950805664 C 30.48492431640625 61.89382171630859 28.85519409179688 63.01155853271484 27.261962890625 64.22608947753906 C 25.66876220703125 65.44061279296875 24.112060546875 66.75193786621094 22.594482421875 68.15760040283203 C 21.076904296875 69.56326293945312 19.59848022460938 71.06325531005859 18.161865234375 72.65512847900391 C 16.7252197265625 74.24700164794922 15.33038330078125 75.93075561523438 13.98004150390625 77.70392608642578 C 12.78744506835938 79.26995849609375 11.68505859375 80.83531951904297 10.67181396484375 82.36720275878906 C 9.6585693359375 83.89909362792969 8.7344970703125 85.39751434326172 7.89849853515625 86.82964324951172 C 7.0625 88.26177215576172 6.31463623046875 89.62760925292969 5.65380859375 90.89436340332031 C 4.99298095703125 92.16110992431641 4.419189453125 93.32876586914062 3.931396484375 94.36451721191406 C 3.4002685546875 95.49232482910156 2.93994140625 96.52706146240234 2.547576904296875 97.44674682617188 C 2.15521240234375 98.36643218994141 1.830780029296875 99.17106628417969 1.57147216796875 99.83868408203125 C 1.3121337890625 100.5063018798828 1.117919921875 101.0368881225586 0.9859619140625 101.4084777832031 C 0.85400390625 101.7800674438477 0.784332275390625 101.9926605224609 0.7740478515625 102.024284362793 C 0.66717529296875 102.3524932861328 0.63189697265625 102.6868286132812 0.659576416015625 103.0103912353516 C 0.687255859375 103.3339538574219 0.777923583984375 103.6467437744141 0.9229736328125 103.9318771362305 C 1.068023681640625 104.2170104980469 1.2674560546875 104.4744720458984 1.512664794921875 104.6873626708984 C 1.75787353515625 104.900260925293 2.04888916015625 105.0685882568359 2.377105712890625 105.1754608154297 C 2.44140625 105.1963958740234 2.50592041015625 105.2145843505859 2.570556640625 105.2300872802734 C 2.63519287109375 105.2455978393555 2.699920654296875 105.2584228515625 2.7646484375 105.2686309814453 C 2.829345703125 105.2788391113281 2.89404296875 105.2864303588867 2.9586181640625 105.2914733886719 C 3.023162841796875 105.2965087890625 3.08758544921875 105.2990036010742 3.1517333984375 105.2990036010742 Z" stroke="none" fill="#f7b02d"/>
    </g>
  </g>
</svg>
